<?xml version="1.0" encoding="UTF-8"?> <svg xmlns="http://www.w3.org/2000/svg" viewBox="0 0 10.09 25.82"><g id="Capa_2" data-name="Capa 2"><g id="Capa_1-2" data-name="Capa 1"><g id="Capa_2-2" data-name="Capa 2"><g id="Capa_1-2-2" data-name="Capa 1-2"><path d="M7.09,6.92H3a3,3,0,0,0-3,3v5.53a3.06,3.06,0,0,0,2,2.87v6.45a1,1,0,0,0,2,0V17.56a1,1,0,0,0-1-1,1,1,0,0,1-1-1V10A1,1,0,0,1,3,9H7.09a1,1,0,0,1,1,1v5.53a1,1,0,0,1-1,1,1,1,0,0,0-1,1v7.29a1,1,0,0,0,2,0V18.4a3.06,3.06,0,0,0,2-2.87V10A3,3,0,0,0,7.09,6.92Z"></path><path d="M5.12,6A3,3,0,1,0,5,6Zm0-4.08a1,1,0,1,1-1,1A1,1,0,0,1,5.12,1.92Z"></path></g></g></g></g></svg> 