<?xml version="1.0" encoding="UTF-8"?> <svg xmlns="http://www.w3.org/2000/svg" viewBox="0 0 43.03 25.82"><g id="Capa_2" data-name="Capa 2"><g id="Capa_1-2" data-name="Capa 1"><g id="Capa_2-2" data-name="Capa 2"><g id="Capa_1-2-2" data-name="Capa 1-2"><path d="M7.09,6.92H3a3,3,0,0,0-3,3v5.53a3.06,3.06,0,0,0,2,2.87v6.45a1,1,0,0,0,2,0V17.56a1,1,0,0,0-1-1,1,1,0,0,1-1-1V10A1,1,0,0,1,3,9H7.09a1,1,0,0,1,1,1v5.53a1,1,0,0,1-1,1,1,1,0,0,0-1,1v7.29a1,1,0,0,0,2,0V18.4a3.06,3.06,0,0,0,2-2.87V10A3,3,0,0,0,7.09,6.92Z"></path><path d="M5.12,6A3,3,0,1,0,5,6Zm0-4.08a1,1,0,1,1-1,1A1,1,0,0,1,5.12,1.92Z"></path></g></g><g id="Capa_2-3" data-name="Capa 2"><g id="Capa_1-2-3" data-name="Capa 1-2"><path d="M18,6.92H13.94a3,3,0,0,0-3,3v5.53a3,3,0,0,0,2,2.87v6.45a1,1,0,0,0,2,0V17.56a1,1,0,0,0-1-1,1,1,0,0,1-1-1V10a1,1,0,0,1,1-1H18a1,1,0,0,1,1,1v5.53a1,1,0,0,1-1,1,1,1,0,0,0-1,1v7.29a1,1,0,0,0,2,0V18.4a3.06,3.06,0,0,0,2-2.87V10A3.06,3.06,0,0,0,18,6.92Z"></path><path d="M16.05,6a3,3,0,1,0-.15,0Zm0-4.08a1,1,0,1,1-1,1A1,1,0,0,1,16.05,1.92Z"></path></g></g><g id="Capa_2-4" data-name="Capa 2"><g id="Capa_1-2-4" data-name="Capa 1-2"><path d="M29.09,6.92H25A2.78,2.78,0,0,0,22,9.6v5.53a3.54,3.54,0,0,0,2,3.19l0,6.13a1,1,0,0,0,2,0l0-6.89a1,1,0,0,0-1-1,1,1,0,0,1-1-1V10a1,1,0,0,1,1-1h4.09a1,1,0,0,1,1,1v5.53a1,1,0,0,1-1,1,1,1,0,0,0-1,1l0,7a1,1,0,0,0,2,0l0-6.1a3.06,3.06,0,0,0,2-2.87V10A3,3,0,0,0,29.09,6.92Z"></path><path d="M27.12,6A3,3,0,1,0,27,6Zm0-4.08a1,1,0,1,1-1,1A1,1,0,0,1,27.12,1.92Z"></path></g></g><g id="Capa_2-5" data-name="Capa 2"><g id="Capa_1-2-5" data-name="Capa 1-2"><path d="M40,6.92H35.94a3,3,0,0,0-3,3v5.53a3.06,3.06,0,0,0,2,2.87l0,6.13a1,1,0,1,0,2,0l0-6.89a1,1,0,0,0-1-1,1,1,0,0,1-1-1V10a1,1,0,0,1,1-1H40a1,1,0,0,1,1,1v5.53a1,1,0,0,1-1,1,1,1,0,0,0-1,1l-.05,7a1,1,0,0,0,2,0L41,18.4a3.06,3.06,0,0,0,2-2.87V10A3.06,3.06,0,0,0,40,6.92Z"></path><path d="M38.05,6a3,3,0,1,0-.15,0Zm0-4.08a1,1,0,1,1-1,1A1,1,0,0,1,38.05,1.92Z"></path></g></g></g></g></svg> 