<?xml version="1.0" encoding="UTF-8"?> <svg xmlns="http://www.w3.org/2000/svg" viewBox="0 0 372.4 575.18"><defs><style>.cls-1,.cls-2{fill:#1d1d1b;}.cls-2{stroke:#1d1d1b;stroke-miterlimit:10;stroke-width:1.76px;}</style></defs><g id="Capa_2" data-name="Capa 2"><g id="Capa_1-2" data-name="Capa 1"><path class="cls-1" d="M196,233.63C183.44,218.08,159,174.19,159,174.19s19.32,15.74,53.36,8.2c22.26-4.93,40.24-24.43,39.47-58.12-.71-31.18-31.41-60.1-73-57C143.94,69.92,120,96.54,113.6,112.53c-5,12.48-3.07,28.81,12.39,31.59,11,2,16.49-6.61,15.65-14.3C140.45,118.92,130,119,130,119c2.36-3.81,15-19.62,37.09-26.77,38.36-12.42,66.1,9.36,67,36.07.53,15.76-8.09,39.68-37.63,42.88-32.71,3.53-47.94-15.68-39.48-30.55,8.14-14.3,20.57-2.49,18.36,5.33s-9.05-.68-9.24,8.16c-.22,9.92,16.31,2.68,18.32-7.72,1.69-8.76-.64-15.53-7.88-20.69-3.34-2.37-9.55-2.82-15.86-1.33-14.85,3.51-17.17,23-18.13,36.08-1.5,20.41,1.32,87.25,1.34,88.21-6.29-13.31-21-11.46-26.7-9.76-6,1.81-13.67,10.66-7.46,16.23,3,2.69,4.47,1.28,6.32.46,3.52-1.57,2.72-6.39,2.72-6.39a10.75,10.75,0,0,1,12.89,2.13c7.9,7.83,7.63,23,.57,29-12.64,10.85-16.1,1.26-16.1,1.26s14-10.74,4.39-19.52-24.39,4.45-15.88,22.68c6.38,13.65,24.2,12,34.29,5.63s15.7-16.78,17.33-35.78-6.18-73.32-6.18-73.32c8.74,35.32,19.68,46.87,32.92,63.55,15.93,20,38.86,41.82,69.72,41.14,8.14-.18,27.77-1.58,34.45-17.94,6.07-14.84-3.25-29.08-18-26.86-11.77,1.78-17.56,10.32-14.2,18.54,1.56,3.81,5.38,5.9,8.27,4.36,5.05-2.68,2.82-6.67,1.57-9.09,0,0,1-4.21,7.14-3.55,8.05.86,8.71,8.41,6.73,13.49-.28.71-10.75,15.07-29.18,10.2C231.38,270.31,212.91,254.64,196,233.63Z"></path><circle class="cls-1" cx="185.91" cy="9.46" r="9.46"></circle><circle class="cls-1" cx="185.91" cy="366.65" r="9.46"></circle><path class="cls-1" d="M339.73,189.87c0-84.91-54.31-155.45-125.91-170.11v0a13.49,13.49,0,1,0,10.23,13.09,14.21,14.21,0,0,0-.22-2.37c54.38,20.45,94.07,84,94.07,159.37,0,73.76-38,136.23-90.61,158a11.9,11.9,0,0,0,.07-1.34A13.5,13.5,0,1,0,212.57,360a1.94,1.94,0,0,1,0,.24l1-.19h.35a13.5,13.5,0,0,0,6.18-1.5C288.54,341.18,339.73,272.3,339.73,189.87Z"></path><path class="cls-1" d="M160.46,333.06a13.5,13.5,0,0,0-13.5,13.5,13.73,13.73,0,0,0,.19,2.14c-53.66-21-92.65-84.12-92.65-158.83,0-75.05,39.34-138.42,93.37-159.15a13.75,13.75,0,0,0-.19,2.15A13.49,13.49,0,1,0,156,20.4l.05-.09C85.7,36.11,32.66,106,32.66,189.87c0,84.79,54.17,155.24,125.63,170l0-.05a13.33,13.33,0,0,0,2.2.19,13.5,13.5,0,1,0,0-27Z"></path><path class="cls-2" d="M58.27,454.63a38.45,38.45,0,0,1-8.19,2.65q6.47,1.22,8.94,4.86t2.47,12v6.41q0,7.95,5,7.95t5.15-9.44v-7.57a14.84,14.84,0,0,1,.44-4.39,3.44,3.44,0,0,1,3.44-1.87c2.66,0,4,1.56,4,4.66,0,.07,0,.88-.11,2.43v8.09a12.29,12.29,0,0,0-.12,2q0,6.42-3.6,10t-10,3.6q-13.08,0-13.08-13.19v-9.53q0-7.43-2.81-9.8t-11.64-2.39H27.9c-2.35,0-3.53,1.45-3.53,4.33V474q0,8.21.22,9.3c.67,3.7,2.51,5.54,5.54,5.54a14.88,14.88,0,0,0,2.33-.13c1.25-.13,2.21-.2,2.88-.2q3.54,0,3.54,3.66c0,2.58-1.59,3.88-4.76,3.88l-1.66-.23-6-.77a47.49,47.49,0,0,0-6.09-.45,63.46,63.46,0,0,0-7.75.56l-5.32.66c-1.19.15-1.74.23-1.66.23q-4.77,0-4.77-4c0-2.37,1.14-3.55,3.44-3.55.37,0,1.36.08,3,.22a8.52,8.52,0,0,0,2.32.34q5.65,0,5.66-8.32V436.35q0-8.31-5.66-8.31a19.39,19.39,0,0,0-2.66.27,18.26,18.26,0,0,1-2.65.28,3.23,3.23,0,0,1-2.44-1,3.48,3.48,0,0,1-1-2.5c0-2.58,1.63-3.87,4.87-3.87.3,0,.82,0,1.56.11l5.65.55c1.47.15,3.32.22,5.54.22s4.83-.07,7.64-.22l8.42-.44q4.21-.22,7.76-.22,24.37,0,24.37,18.55Q66.69,450.66,58.27,454.63Zm-30.69-.89H38q9.3,0,14-2.66,5.64-3.21,5.65-10.74,0-12.63-17.34-12.63-9.23,0-12.51,1.38t-3.39,5.48v16.29c0,1.26.22,2.05.66,2.38A4.6,4.6,0,0,0,27.58,453.74Z"></path><path class="cls-2" d="M141.85,497q-9.09,0-11.19-7.86-5.64,8.3-17.73,8.31-9,0-14.34-4.44a14.55,14.55,0,0,1-5.38-11.85q0-9.19,7.87-13.52a20.38,20.38,0,0,1,5.15-2.16c1.44-.33,4.34-.76,8.7-1.27q9.3-1,12.13-2.77c1.88-1.18,2.83-3.36,2.83-6.54a8.79,8.79,0,0,0-3.16-7.15c-2.11-1.73-5-2.6-8.81-2.6a16.92,16.92,0,0,0-9.31,2.77c-1.1.74-1.66,1.51-1.66,2.33,0,.29.33.66,1,1.1a4.33,4.33,0,0,1,1.55,3.77,4.71,4.71,0,0,1-1.61,3.66,5.83,5.83,0,0,1-4,1.44,6.45,6.45,0,0,1-4.82-2,6.73,6.73,0,0,1-1.94-4.87q0-6.21,6.15-10.64a24.82,24.82,0,0,1,14.9-4.43q20.16,0,20.17,19.35v22.33a46.77,46.77,0,0,0,.22,6.3c.44,2.58,1.7,3.87,3.76,3.87q3.89,0,3.88-7v-5.39q0-3.52,3.38-3.52,3.6,0,3.6,5.32v6.86Q152.93,497,141.85,497Zm-12.3-22.05V467a14.15,14.15,0,0,1-5.13,3.1,51.06,51.06,0,0,1-9.65,1.55q-12.58,1.21-12.58,9.31a8.07,8.07,0,0,0,3,6.65c2,1.62,4.79,2.43,8.26,2.43q7.42,0,11.69-4T129.55,474.9Z"></path><path class="cls-2" d="M182.31,450.75l12.74,37.45,13.52-36.9a7.7,7.7,0,0,0,.55-2.44c0-1.25-.85-1.88-2.55-1.88a8.26,8.26,0,0,0-2.1.22c-1.19.15-2,.23-2.33.23q-3.66,0-3.66-3.55,0-3.76,4.77-3.77a17.92,17.92,0,0,1,2.21.23l4,.55a23.37,23.37,0,0,0,3.33.22,45.32,45.32,0,0,0,5.54-.5,45,45,0,0,1,5.54-.5q4.75,0,4.76,3.71T225,447.43a4.66,4.66,0,0,1-1.66-.23,10.69,10.69,0,0,0-2-.33c-1.41,0-2.85,1.89-4.32,5.65l-15.07,37.67q-5,12.53-9.42,18.18Q185,518,173.67,518a18.43,18.43,0,0,1-11.36-3.43q-4.59-3.44-4.6-8.31a8,8,0,0,1,2-5.6,6.77,6.77,0,0,1,5.21-2.16,6,6,0,0,1,4.21,1.5,4.79,4.79,0,0,1,1.67,3.71,4.29,4.29,0,0,1-3.22,4.54q1.67,2.44,6.32,2.44a15.19,15.19,0,0,0,10.58-4.37c3.14-2.93,4.71-6.19,4.71-9.81q0-2.77-3-10.31L174,455.4l-1.33-3.54q-1.89-5-4.32-5a19.06,19.06,0,0,0-2.39.28,19.31,19.31,0,0,1-2.27.28q-3.87,0-3.87-3.55,0-3.76,5.09-3.77a20,20,0,0,1,2.55.13l4.43.65h.89a10.28,10.28,0,0,0,1.33.11,76.68,76.68,0,0,0,8.53-.51c2.29-.25,3.8-.38,4.54-.38q4.66,0,4.66,3.66c0,2.44-1.41,3.66-4.21,3.66a15.47,15.47,0,0,1-2.11-.23,16.87,16.87,0,0,0-2.1-.22,1.38,1.38,0,0,0-1.56,1.55A7.19,7.19,0,0,0,182.31,450.75Z"></path><path class="cls-2" d="M263.83,497.4q-11.64,0-18.62-8t-7-21.55q0-13.51,7-21.55t18.89-8q12.07,0,19.06,7.87t7,21.38q0,13.51-7.2,21.71T263.83,497.4Zm.55-51.86q-7.75,0-12.18,5.43t-4.88,15.4v1.44q0,10.43,4.38,16.34t12.24,5.93q8.08,0,12.69-5.93t4.6-16.45Q281.23,445.55,264.38,445.54Zm31.55-27.16q0,2.78-3.87,4.43l-15.74,6.88a14.1,14.1,0,0,0-1.55.33c-1.48,0-2.21-.89-2.21-2.66,0-1,.73-1.92,2.21-2.88l14-8.76a6.55,6.55,0,0,1,3.44-1.1Q295.94,414.62,295.93,418.38Z"></path><path class="cls-2" d="M322.21,443.49v3.16a21.45,21.45,0,0,1,17.73-8.42,22.3,22.3,0,0,1,11.3,3,15.89,15.89,0,0,1,7.2,7.58,26.45,26.45,0,0,1,1.55,9.87v21c0,3.17,0,5.06.11,5.65q.56,3.76,3,3.76a15.33,15.33,0,0,0,2.6-.27,16.42,16.42,0,0,1,2.27-.28,3.52,3.52,0,0,1,2.49,1,3.26,3.26,0,0,1,1.06,2.44,3.48,3.48,0,0,1-1.33,2.77A4.86,4.86,0,0,1,367,496a48,48,0,0,1-5.09-.44,55,55,0,0,0-6.65-.44,41.45,41.45,0,0,0-4.76.22q-5.55.66-5.88.66-4.43,0-4.43-3.87,0-3.43,3.84-3.44a11.48,11.48,0,0,1,2,.22,18.33,18.33,0,0,0,2.71.45q2.7,0,2.93-6.1V462.38a39.13,39.13,0,0,0-.55-8.09,10.69,10.69,0,0,0-4.3-6.53,14.09,14.09,0,0,0-8.28-2.55q-8.83,0-12.69,6.32-2.66,4.32-2.65,14.73V481a22.17,22.17,0,0,0,.66,6.65,2.45,2.45,0,0,0,2.44,1.77,10.76,10.76,0,0,0,2.44-.39,10.84,10.84,0,0,1,2.55-.39q3.43,0,3.43,3.71T330.3,496q-.89,0-5.76-.66a40.81,40.81,0,0,0-5.43-.33,58.94,58.94,0,0,0-6.21.44c-3.25.37-5.09.55-5.54.55q-4.65,0-4.65-3.76,0-3.56,3.61-3.55a11.25,11.25,0,0,1,2.09.34,14.8,14.8,0,0,0,3,.33c2.26,0,3.42-2.15,3.5-6.43V453.3a14.08,14.08,0,0,0-1-5.15,2.63,2.63,0,0,0-2.54-1.39,13.46,13.46,0,0,0-2.31.28,14.79,14.79,0,0,1-2.32.28c-2.71,0-4.06-1.19-4.06-3.55s1.66-3.66,5-3.66a5,5,0,0,1,1.11.11l4.09.45a15.8,15.8,0,0,0,3.11-.28l3-.28Q322.21,440.11,322.21,443.49Z"></path><path class="cls-2" d="M46.84,546.69a8.67,8.67,0,0,1,7,3.3v-.87a1.63,1.63,0,0,1-.07-.28c-.06-.59-.08-.85-.08-.8q0-1.35,1.2-1.35c.86,0,1.28.54,1.28,1.63,0,.21,0,.83-.08,1.86-.15,1.3-.23,2.19-.23,2.68A19.65,19.65,0,0,0,56,555l.18,1.47v.39c0,1.17-.46,1.75-1.4,1.75s-1.5-.55-1.47-1.66v-1.38a5.73,5.73,0,0,0-1.74-4.51,6.66,6.66,0,0,0-4.77-1.73,7,7,0,0,0-6,2.95c-1.44,2-2.17,4.69-2.17,8.15s.75,6.31,2.24,8.29a7.33,7.33,0,0,0,6.23,3,7.44,7.44,0,0,0,3.9-1,5.77,5.77,0,0,0,2.43-2.76,8.11,8.11,0,0,0,.46-3c0-1.19.49-1.79,1.48-1.79s1.59.6,1.59,1.79a8.84,8.84,0,0,1-2.87,6.8,10.55,10.55,0,0,1-7.42,2.64,10.43,10.43,0,0,1-8.37-3.69q-3.12-3.69-3.12-9.83,0-6.31,3.2-10.21A10.41,10.41,0,0,1,46.84,546.69Z"></path><path class="cls-2" d="M73.55,552.71c0-1.92-.66-2.87-2-2.87a3.34,3.34,0,0,0-.82.07,5.62,5.62,0,0,1-1,.12,1.11,1.11,0,0,1-.85-.37,1.29,1.29,0,0,1-.35-.91c0-.91.57-1.36,1.71-1.36a3.81,3.81,0,0,1,.54,0l2.06.27a18.9,18.9,0,0,0,2.41.15,19.74,19.74,0,0,0,2.64-.19l1.74-.23a3.84,3.84,0,0,1,.55,0c1.14,0,1.71.45,1.71,1.36a1.29,1.29,0,0,1-.35.91,1.14,1.14,0,0,1-.86.37,6.2,6.2,0,0,1-1.05-.12,3.3,3.3,0,0,0-.81-.07c-1.32,0-2,.95-2,2.87v15.57q0,2.91,2,2.91a5.75,5.75,0,0,0,.81-.08,7.34,7.34,0,0,1,1.05-.11,1.08,1.08,0,0,1,1.21,1.24c0,.93-.57,1.4-1.71,1.4h-.27a1,1,0,0,0-.28,0l-2-.31a13.37,13.37,0,0,0-2.14-.16,19.46,19.46,0,0,0-2.91.19l-1.79.28a1.31,1.31,0,0,0-.27,0h-.31c-1.11,0-1.67-.47-1.67-1.4A1.08,1.08,0,0,1,69.7,571c.13,0,.48,0,1,.07a3.07,3.07,0,0,0,.82.12q2,0,2-2.91Z"></path><path class="cls-2" d="M103.42,549.14l10.43,21.7V555.19c0-2,0-3.13,0-3.34-.23-1.34-.88-2-1.94-2a7,7,0,0,0-.93.09,6.11,6.11,0,0,1-.94.1,1.26,1.26,0,0,1-1.24-1.24c0-.94.58-1.4,1.75-1.4a2,2,0,0,1,.5,0l1.75.23a15.52,15.52,0,0,0,2.17.16,22.77,22.77,0,0,0,2.68-.22c.39-.05.85-.1,1.36-.18l.27,0h.28c1.11,0,1.67.45,1.67,1.34s-.53,1.3-1.58,1.3h-.83a1.85,1.85,0,0,0-1.55.5,4.91,4.91,0,0,0-.43,2.21v16.52a8.25,8.25,0,0,1-.61,3.76,2.18,2.18,0,0,1-2.08,1.08c-1.28,0-2.36-.91-3.24-2.72l-10.22-21.16v18.06q0,2.91,2,2.91.3,0,.93-.06t.93-.06a1.1,1.1,0,0,1,1.24,1.25q0,1.32-1.74,1.32h-.24a1.31,1.31,0,0,0-.27,0l-1.59-.24a17,17,0,0,0-2.49-.19,22.1,22.1,0,0,0-2.6.19l-1.9.24a1.31,1.31,0,0,0-.27,0h-.31c-1.11,0-1.67-.46-1.67-1.36a1.08,1.08,0,0,1,1.24-1.21l1,.08a3,3,0,0,0,.82.12c1.31,0,2-1,2-2.91V552.75c0-1.94-.66-2.91-2-2.91a5.39,5.39,0,0,0-.77.07,7.49,7.49,0,0,1-1.08.12c-.82,0-1.23-.43-1.23-1.28s.55-1.36,1.67-1.36a5.53,5.53,0,0,1,.62,0c1.29.13,2.28.19,3,.19q.58,0,1.74-.12c.78-.07,1.36-.11,1.75-.11a1.59,1.59,0,0,1,1.59.81Z"></path><path class="cls-2" d="M142.93,546.69a8.7,8.7,0,0,1,7,3.3v-.87a1.25,1.25,0,0,1-.08-.28c0-.59-.08-.85-.08-.8q0-1.35,1.2-1.35c.86,0,1.28.54,1.28,1.63,0,.21,0,.83-.07,1.86a26.27,26.27,0,0,0-.24,2.68,17.46,17.46,0,0,0,.14,2.14l.17,1.47v.39c0,1.17-.46,1.75-1.39,1.75s-1.5-.55-1.48-1.66v-1.38a5.73,5.73,0,0,0-1.74-4.51,6.63,6.63,0,0,0-4.76-1.73,7,7,0,0,0-6,2.95q-2.16,3-2.16,8.15t2.23,8.29a7.35,7.35,0,0,0,6.23,3,7.44,7.44,0,0,0,3.9-1,5.77,5.77,0,0,0,2.43-2.76,8.11,8.11,0,0,0,.46-3c0-1.19.5-1.79,1.48-1.79s1.59.6,1.59,1.79a8.84,8.84,0,0,1-2.87,6.8,10.55,10.55,0,0,1-7.42,2.64,10.39,10.39,0,0,1-8.36-3.69q-3.14-3.69-3.13-9.83,0-6.31,3.2-10.21A10.41,10.41,0,0,1,142.93,546.69Z"></path><path class="cls-2" d="M171.89,553.52V556l-.23,3.14v6a9.68,9.68,0,0,0,.6,4,4.12,4.12,0,0,0,2.27,1.94,8.1,8.1,0,0,0,3.19.66,7.66,7.66,0,0,0,3.65-.81,3.84,3.84,0,0,0,2-2.2,12.32,12.32,0,0,0,.48-3.51v-10a31.61,31.61,0,0,0-.08-3.34q-.33-2-1.95-2a5.39,5.39,0,0,0-.76.07,9.65,9.65,0,0,1-1,.09,1.16,1.16,0,0,1-.86-.38,1.27,1.27,0,0,1-.37-.88q0-1.38,1.71-1.38a3.48,3.48,0,0,1,.55,0l2.29.31a14.12,14.12,0,0,0,1.94.11,12,12,0,0,0,1.74-.1l1.67-.25a6.45,6.45,0,0,1,.94-.11c1.08,0,1.63.44,1.63,1.32s-.53,1.32-1.59,1.32h-.82a1.35,1.35,0,0,0-1.44,1.16,37.22,37.22,0,0,0-.27,6v6.77a30.88,30.88,0,0,1-.15,3.64,8.05,8.05,0,0,1-1.32,3.37c-1.56,2.24-4.18,3.37-7.89,3.37q-6.83,0-8.81-4.46a10.73,10.73,0,0,1-.62-4.21c0-.93,0-2.31.12-4.13s.11-3.19.11-4.12v-2c0-1.88,0-2.94,0-3.17-.18-1.42-.68-2.13-1.51-2.13h-1.13c-1.08,0-1.63-.44-1.63-1.32s.49-1.32,1.48-1.32a9,9,0,0,1,1.32.11,21.71,21.71,0,0,0,3.53.32,25,25,0,0,0,3.85-.35,6.27,6.27,0,0,1,1-.08q1.59,0,1.59,1.32a1.19,1.19,0,0,1-1.36,1.32,5.89,5.89,0,0,1-.93-.1,7.27,7.27,0,0,0-.94-.09,1.67,1.67,0,0,0-1.67,1.32A9.89,9.89,0,0,0,171.89,553.52Z"></path><path class="cls-2" d="M206.56,552.71c0-1.92-.66-2.87-2-2.87a3.3,3.3,0,0,0-.81.07,5.8,5.8,0,0,1-1.05.12,1.1,1.1,0,0,1-.85-.37,1.25,1.25,0,0,1-.35-.91c0-.91.54-1.36,1.62-1.36l.58,0q5.81.39,5.42.39h.38l9.33-.28,2-.11c.41,0,.79,0,1.12,0,1.35,0,2,.59,2,1.79,0,.2,0,.86-.11,2-.06.82-.09,1.59-.09,2.29a16.49,16.49,0,0,0,.07,1.9c.08.75.13,1.31.13,1.67q0,1.47-1.38,1.47c-.92,0-1.38-.68-1.38-2v-2c0-2.18-.45-3.46-1.36-3.85a18.45,18.45,0,0,0-5.2-.42,23.88,23.88,0,0,0-3.26.11,2.13,2.13,0,0,0-1.67,2.33v3.88c0,1,.23,1.63.69,1.79a3.68,3.68,0,0,0,.91.08h1.57c1.61,0,2.42-.56,2.42-1.67a8.71,8.71,0,0,0-.1-1.2,11.46,11.46,0,0,1-.1-1.32q0-1.56,1.38-1.56c.92,0,1.38.56,1.38,1.67,0,.21-.08,1-.25,2.41a27.55,27.55,0,0,0-.22,3.14c0,.52.06,1.44.16,2.76,0,.21.09.66.19,1.36a10.28,10.28,0,0,1,.12,1.36,1.24,1.24,0,0,1-1.4,1.4c-.9,0-1.36-.55-1.36-1.64,0-.28,0-.69.1-1.24a10.15,10.15,0,0,0,.1-1.24c0-1.11-.74-1.67-2.22-1.67h-1.74q-1.12,0-1.38.39a3.52,3.52,0,0,0-.25,1.67v2.41c0,.41,0,1,0,1.67,0,.85,0,1.42,0,1.7q0,1.56.63,2a4.55,4.55,0,0,0,2,.27h5.29a5.29,5.29,0,0,0,3.14-.68,3.13,3.13,0,0,0,.85-2.55c0-.38,0-1-.05-1.72s-.06-1.34-.06-1.73c0-1.17.46-1.75,1.38-1.75s1.45.6,1.45,1.79c0,.46,0,1.18-.06,2.13s-.05,1.67-.05,2.14,0,.9.05,1.61.06,1.25.06,1.61a1.59,1.59,0,0,1-1.78,1.83c-.29,0-.74,0-1.36-.08-.31,0-.88,0-1.71,0l-3-.08c-2.2-.05-4.1-.08-5.71-.08q-3.65,0-7.14.24a1.56,1.56,0,0,0-.35,0h-.23c-1.09,0-1.63-.47-1.63-1.4a1.08,1.08,0,0,1,1.2-1.24c.13,0,.48,0,1.05.07a2.94,2.94,0,0,0,.81.12q2,0,2-2.91Z"></path><path class="cls-2" d="M247.7,549.14l10.42,21.7V555.19c0-2,0-3.13,0-3.34q-.36-2-1.95-2a7.31,7.31,0,0,0-.93.09,5.89,5.89,0,0,1-.93.1,1.16,1.16,0,0,1-.87-.37,1.19,1.19,0,0,1-.37-.87c0-.94.58-1.4,1.74-1.4a2.06,2.06,0,0,1,.51,0l1.75.23a15.42,15.42,0,0,0,2.17.16,22.93,22.93,0,0,0,2.68-.22c.39-.05.84-.1,1.36-.18l.27,0h.27c1.12,0,1.67.45,1.67,1.34s-.53,1.3-1.58,1.3h-.83a1.84,1.84,0,0,0-1.54.5,4.88,4.88,0,0,0-.44,2.21v16.52a8.42,8.42,0,0,1-.6,3.76,2.19,2.19,0,0,1-2.09,1.08c-1.27,0-2.35-.91-3.24-2.72l-10.22-21.16v18.06q0,2.91,2,2.91c.21,0,.52,0,.94-.06s.72-.06.93-.06a1.1,1.1,0,0,1,1.24,1.25c0,.88-.58,1.32-1.75,1.32H248a1.31,1.31,0,0,0-.27,0l-1.59-.24a17,17,0,0,0-2.49-.19,22.1,22.1,0,0,0-2.6.19l-1.9.24a1.16,1.16,0,0,0-.27,0h-.32c-1.11,0-1.67-.46-1.67-1.36a1.09,1.09,0,0,1,1.25-1.21l1.05.08a2.94,2.94,0,0,0,.81.12q2,0,2-2.91V552.75c0-1.94-.67-2.91-2-2.91a5.39,5.39,0,0,0-.77.07,7.49,7.49,0,0,1-1.08.12,1.12,1.12,0,0,1-1.24-1.28c0-.91.56-1.36,1.67-1.36a5.4,5.4,0,0,1,.62,0c1.29.13,2.29.19,3,.19q.57,0,1.74-.12c.77-.07,1.36-.11,1.74-.11a1.59,1.59,0,0,1,1.59.81Z"></path><path class="cls-2" d="M289,568.32q0,2.91,2,2.91a5.89,5.89,0,0,0,.93-.1,7.61,7.61,0,0,1,.93-.1,1.25,1.25,0,0,1,1.24,1.25c0,.9-.58,1.36-1.74,1.36h-.24a1.23,1.23,0,0,0-.27,0l-1.9-.28a18,18,0,0,0-2.45-.15,19.93,19.93,0,0,0-2.6.15l-1.94.28a.93.93,0,0,0-.27,0h-.27c-1.14,0-1.71-.46-1.71-1.36A1.1,1.1,0,0,1,282,571a7.42,7.42,0,0,1,.93.1,6.11,6.11,0,0,0,.94.1c1.29,0,1.94-1,1.94-2.91V552.55c0-1.83-.95-2.75-2.84-2.75h-1.2c-1.86,0-2.8.9-2.8,2.71,0,.65,0,1.09,0,1.32l.16,1.44c0,.23,0,.56,0,1,0,1.63-.51,2.45-1.52,2.45s-1.43-.6-1.43-1.79c0-.33,0-.92.07-1.75.08-1.24.12-2,.12-2.36,0-.65,0-1.32-.06-2-.09-1.37-.13-2-.13-1.75,0-1.09.49-1.63,1.47-1.63.36,0,1.2,0,2.52.11l3.18.16h4.42c.51,0,1.89,0,4.14-.07.49,0,1.33,0,2.52-.1s1.89-.1,2.48-.1c1.29,0,1.94.53,1.94,1.59v.08c0,.26,0,.74-.1,1.44s-.13,1.44-.21,2.25v.42q0,.58.12,1.83c.1,1.09.15,1.76.15,2,0,1.06-.5,1.59-1.51,1.59s-1.48-.65-1.48-2c0-.47,0-1.16.12-2.09s.12-1.61.12-2.08c0-1.8-1-2.69-3.07-2.69h-1.09a2.91,2.91,0,0,0-2.06.6,3,3,0,0,0-.7,2l-.15,2.72Z"></path><path class="cls-2" d="M328.24,569.05l-1.4-3.8a1.58,1.58,0,0,0-.48-.78,2.31,2.31,0,0,0-1-.15h-6.91a1.6,1.6,0,0,0-1.07.27,5,5,0,0,0-.76,1.47l-1.12,3a2.53,2.53,0,0,0-.16.82c0,.83.51,1.24,1.52,1.24a8.91,8.91,0,0,0,1.1-.08c.48,0,.84-.07,1.07-.07,1.06,0,1.59.45,1.59,1.36s-.58,1.28-1.74,1.28a7,7,0,0,1-.86-.08l-1.94-.24a15,15,0,0,0-1.78-.07c-.91,0-1.54,0-1.91.06l-1.63.2c-.72.08-1.25.13-1.59.13-1,0-1.51-.43-1.51-1.28s.49-1.36,1.47-1.36a.66.66,0,0,1,.47.15h.5a1.78,1.78,0,0,0,1.59-.82,8.68,8.68,0,0,0,.78-1.83l7.22-19.59a2.4,2.4,0,0,1,2.45-1.64,2.3,2.3,0,0,1,2.37,1.63l6.95,19.26a7.78,7.78,0,0,0,1.2,2.41,2,2,0,0,0,1.55.58,1.75,1.75,0,0,0,.47-.05l1.09-.1c1,0,1.47.42,1.47,1.28s-.49,1.36-1.47,1.36a9.28,9.28,0,0,1-1.13-.09,33.05,33.05,0,0,0-3.65-.3c-1,0-2.51.1-4.66.31-.54.05-1,.08-1.24.08-1,0-1.55-.44-1.55-1.32s.57-1.32,1.7-1.32a9.74,9.74,0,0,1,1,.07,8.23,8.23,0,0,0,1,.08c.86,0,1.28-.35,1.28-1.05A5.16,5.16,0,0,0,328.24,569.05Zm-2.79-7.92L322,550.42l-3.57,10.71a2.73,2.73,0,0,0-.08.27c0,.24.2.35.59.35h6.17c.31,0,.46-.1.46-.31A1.27,1.27,0,0,0,325.45,561.13Z"></path></g></g></svg> 