<?xml version="1.0" encoding="UTF-8"?> <svg xmlns="http://www.w3.org/2000/svg" viewBox="0 0 307.07 376.1"><defs><style>.cls-1{fill:#fff;}</style></defs><g id="Capa_2" data-name="Capa 2"><g id="Capa_1-2" data-name="Capa 1"><path class="cls-1" d="M163.31,233.63c-12.54-15.55-36.95-59.44-36.95-59.44s19.31,15.74,53.36,8.2C202,177.46,220,158,219.19,124.27c-.71-31.18-31.42-60.1-73-57-34.87,2.62-58.85,29.24-65.21,45.23-5,12.48-3.08,28.81,12.39,31.59,11,2,16.49-6.61,15.65-14.3C107.79,118.92,97.36,119,97.36,119c2.37-3.81,15-19.62,37.1-26.77,38.36-12.42,66.09,9.36,67,36.07.53,15.76-8.1,39.68-37.64,42.88-32.7,3.53-47.94-15.68-39.48-30.55,8.14-14.3,20.57-2.49,18.36,5.33s-9-.68-9.23,8.16c-.22,9.92,16.31,2.68,18.32-7.72,1.69-8.76-.64-15.53-7.89-20.69-3.33-2.37-9.55-2.82-15.86-1.33-14.84,3.51-17.16,23-18.12,36.08-1.51,20.41,1.32,87.25,1.34,88.21-6.29-13.31-21-11.46-26.71-9.76-6,1.81-13.66,10.66-7.46,16.23,3,2.69,4.48,1.28,6.33.46,3.52-1.57,2.71-6.39,2.71-6.39A10.77,10.77,0,0,1,99,251.29c7.9,7.83,7.62,23,.57,29-12.65,10.85-16.11,1.26-16.11,1.26s14-10.74,4.4-19.52S63.48,266.52,72,284.75c6.38,13.65,24.19,12,34.29,5.63S122,273.6,123.61,254.6s-6.17-73.32-6.17-73.32c8.74,35.32,19.67,46.87,32.92,63.55,15.93,20,38.85,41.82,69.72,41.14,8.13-.18,27.77-1.58,34.45-17.94,6.06-14.84-3.25-29.08-18-26.86C224.79,243,219,251.49,222.37,259.71c1.55,3.81,5.37,5.9,8.27,4.36,5-2.68,2.82-6.67,1.56-9.09,0,0,1-4.21,7.14-3.55,8.06.86,8.72,8.41,6.73,13.49a27.1,27.1,0,0,1-29.18,10.2C198.72,270.31,180.25,254.64,163.31,233.63Z"></path><circle class="cls-1" cx="153.25" cy="9.46" r="9.46"></circle><circle class="cls-1" cx="153.25" cy="366.65" r="9.46"></circle><path class="cls-1" d="M307.07,189.87c0-84.91-54.31-155.45-125.92-170.11v0a13.49,13.49,0,1,0,10.22,13.09,13.22,13.22,0,0,0-.22-2.37c54.39,20.45,94.07,84,94.07,159.37,0,73.76-38,136.23-90.6,158,0-.44.07-.89.07-1.34A13.5,13.5,0,1,0,179.91,360c0,.08,0,.16,0,.24l1-.19h.36a13.53,13.53,0,0,0,6.18-1.5C255.88,341.18,307.07,272.3,307.07,189.87Z"></path><path class="cls-1" d="M127.8,333.06a13.49,13.49,0,0,0-13.5,13.5,12.61,12.61,0,0,0,.19,2.14c-53.66-21-92.65-84.12-92.65-158.83,0-75.05,39.34-138.42,93.37-159.15a12.64,12.64,0,0,0-.19,2.15,13.49,13.49,0,1,0,8.32-12.47l0-.09C53,36.11,0,106,0,189.87c0,84.79,54.17,155.24,125.62,170l0-.05a13.33,13.33,0,0,0,2.2.19,13.5,13.5,0,0,0,0-27Z"></path></g></g></svg> 