<?xml version="1.0" encoding="UTF-8"?> <svg xmlns="http://www.w3.org/2000/svg" id="Capa_1" data-name="Capa 1" viewBox="0 0 65.68 25.95"><defs><style>.cls-1,.cls-2{fill:none;stroke:#000;stroke-linecap:round;stroke-width:2px;}.cls-1{stroke-miterlimit:10;}.cls-2{stroke-linejoin:round;}</style></defs><title>4 adultos y dos niños</title><path d="M25.5,6.08a3,3,0,1,0-3-3A3,3,0,0,0,25.5,6.08ZM25.5,2a1,1,0,1,1-1,1,1,1,0,0,1,1-1h0Z"></path><path d="M7.09,7H3a3,3,0,0,0-3,3v5.53A3.06,3.06,0,0,0,2,18.4v6.45a1,1,0,0,0,2,0V17.64a1,1,0,0,0-1-1,1,1,0,0,1-1-1V10.08a1,1,0,0,1,1-1H7.09a1,1,0,0,1,1,1v5.53a1,1,0,0,1-1,1,1,1,0,0,0-1,1V24.9a1,1,0,0,0,2,0V18.48a3.06,3.06,0,0,0,2-2.87V10.08A3,3,0,0,0,7.09,7Z"></path><path d="M30.55,16A9.25,9.25,0,0,0,29,12.86l.61-2a2.92,2.92,0,0,0-.41-2.56A2.83,2.83,0,0,0,27,7.05H24.12a2.84,2.84,0,0,0-2.23,1.21,2.92,2.92,0,0,0-.41,2.56l.61,2c-2.23,2.83-2.16,7.21-2.16,7.4a1,1,0,0,0,1,1h1.53v3.7a1,1,0,0,0,2,0v-4.7a1,1,0,0,0-1-1H22c.13-1.54.61-4,2-5.44a1,1,0,0,0,.23-1l-.77-2.55a.88.88,0,0,1,.13-.8.86.86,0,0,1,.63-.36h2.72a.84.84,0,0,1,.63.36.88.88,0,0,1,.13.8l-.77,2.55a1,1,0,0,0,.23,1,6.91,6.91,0,0,1,1.48,2.79,11.89,11.89,0,0,1,.48,2.65H27.6a1,1,0,0,0-1,1v4.71a1,1,0,0,0,2,0v-3.7h1.52a1,1,0,0,0,1-1A15.14,15.14,0,0,0,30.55,16Z"></path><path d="M15.11,13.62a3,3,0,1,0-3-3A3,3,0,0,0,15.11,13.62Zm0-4a1,1,0,1,1-1,1,1,1,0,0,1,1-1h0Z"></path><path d="M5.07,6.08a3,3,0,1,0-.15,0ZM5.07,2a1,1,0,1,1-1,1A1,1,0,0,1,5.07,2Z"></path><path d="M59.94,6.08a3,3,0,1,0-3-3A3,3,0,0,0,59.94,6.08Zm0-4.05a1,1,0,1,1-1,1,1,1,0,0,1,1-1h0Z"></path><path d="M40.94,7H36.85a3,3,0,0,0-3,3v5.53a3,3,0,0,0,2,2.87v6.45a1,1,0,0,0,2,0V17.64a1,1,0,0,0-1-1,1,1,0,0,1-1-1V10.08a1,1,0,0,1,1-1h4.09a1,1,0,0,1,1,1v5.53a1,1,0,0,1-1,1,1,1,0,0,0-1,1V24.9a1,1,0,1,0,2,0V18.48a3.06,3.06,0,0,0,2-2.87V10.08A3.06,3.06,0,0,0,40.94,7Z"></path><path d="M65,16a9.43,9.43,0,0,0-1.56-3.14l.61-2a2.92,2.92,0,0,0-.41-2.56A2.84,2.84,0,0,0,61.4,7.05H58.56a2.84,2.84,0,0,0-2.23,1.21,2.92,2.92,0,0,0-.41,2.56l.61,2c-2.23,2.83-2.16,7.21-2.16,7.4a1,1,0,0,0,1,1H56.9v3.7a1,1,0,0,0,2,0v-4.7a1,1,0,0,0-1-1H56.43c.13-1.54.61-4,2-5.44a1,1,0,0,0,.23-1l-.77-2.55a.88.88,0,0,1,.13-.8.82.82,0,0,1,.63-.36h2.72a.86.86,0,0,1,.63.36.88.88,0,0,1,.13.8l-.77,2.55a1,1,0,0,0,.23,1,6.91,6.91,0,0,1,1.48,2.79,13.16,13.16,0,0,1,.48,2.65H62a1,1,0,0,0-1,1v4.71a1,1,0,0,0,2,0v-3.7h1.52a1,1,0,0,0,1-1A15.92,15.92,0,0,0,65,16Z"></path><path d="M38.92,6.08a3,3,0,1,0-.16,0Zm0-4.08a1,1,0,1,1-1,1A1,1,0,0,1,38.92,2Z"></path><path class="cls-1" d="M13.43,24.87V20.93a.08.08,0,0,0,0-.07,1.61,1.61,0,0,1-1.1-1.52V16.75A1.68,1.68,0,0,1,14,15.08h1.89a1.68,1.68,0,0,1,1.68,1.67v2.59a1.6,1.6,0,0,1-1.2,1.55.08.08,0,0,0,0,.07v3.91"></path><path d="M49.42,13.81a3,3,0,1,0-3-3A3,3,0,0,0,49.42,13.81Zm0-4.05a1,1,0,1,1-1,1,1,1,0,0,1,1-1h0Z"></path><path class="cls-2" d="M47.74,25.06v-4.4H46.27a.55.55,0,0,1-.52-.72c.5-1.47,1.94-4.68,2.53-4.68h1.88c.64,0,2,3.24,2.4,4.7a.55.55,0,0,1-.52.7H50.59v4.4"></path></svg> 