<?xml version="1.0" encoding="UTF-8"?> <svg xmlns="http://www.w3.org/2000/svg" id="Capa_1" data-name="Capa 1" viewBox="0 0 55.17 22.61"><defs><style>.cls-1{fill:none;}.cls-1,.cls-2{stroke:#000;stroke-miterlimit:10;stroke-width:2px;}.cls-2{fill:#fff;}</style></defs><title>Dos camas matrimoniales</title><path class="cls-1" d="M34,1H49.89a1.73,1.73,0,0,1,1.56,1.86V13.43a1.73,1.73,0,0,1-1.56,1.86H34a1.73,1.73,0,0,1-1.56-1.86V2.86A1.73,1.73,0,0,1,34,1Z"></path><path class="cls-2" d="M32.76,13.79H51.14a3.26,3.26,0,0,1,3,3.43v1a3.26,3.26,0,0,1-3,3.43H32.76a3.25,3.25,0,0,1-3-3.43v-1A3.25,3.25,0,0,1,32.76,13.79Z"></path><path class="cls-1" d="M32.47,13.34a1.31,1.31,0,0,1,0-.28c0-1.42,1.86-2.57,4.15-2.57s4.14,1.15,4.14,2.57"></path><path class="cls-1" d="M43.16,13.34a1.31,1.31,0,0,1,0-.28c0-1.42,1.86-2.57,4.15-2.57s4.14,1.15,4.14,2.57"></path><path class="cls-1" d="M5.29,1H21.16a1.73,1.73,0,0,1,1.56,1.86V13.43a1.73,1.73,0,0,1-1.56,1.86H5.29a1.73,1.73,0,0,1-1.56-1.86V2.86A1.73,1.73,0,0,1,5.29,1Z"></path><path class="cls-2" d="M4,13.79H22.41a3.26,3.26,0,0,1,3.05,3.43v1a3.26,3.26,0,0,1-3.05,3.43H4a3.26,3.26,0,0,1-3-3.43v-1A3.26,3.26,0,0,1,4,13.79Z"></path><path class="cls-1" d="M3.74,13.34a1.31,1.31,0,0,1,0-.28c0-1.42,1.86-2.57,4.15-2.57S12,11.64,12,13.06"></path><path class="cls-1" d="M14.43,13.34a1.31,1.31,0,0,1,0-.28c0-1.42,1.86-2.57,4.15-2.57s4.14,1.15,4.14,2.57"></path></svg> 