<?xml version="1.0" encoding="UTF-8"?> <svg xmlns="http://www.w3.org/2000/svg" id="Capa_1" data-name="Capa 1" viewBox="0 0 60.85 22.61"><defs><style>.cls-1{fill:none;}.cls-1,.cls-2{stroke:#000;stroke-miterlimit:10;stroke-width:2px;}.cls-2{fill:#fff;}</style></defs><title>Dos queen size</title><rect class="cls-1" x="33.74" y="1" width="24.67" height="14.29" rx="1.86" ry="1.86"></rect><rect class="cls-2" x="32.29" y="13.79" width="27.56" height="7.82" rx="3.43" ry="3.43"></rect><path class="cls-1" d="M36.59,13.34a1.31,1.31,0,0,1,0-.28c0-1.42,1.86-2.57,4.15-2.57s4.14,1.15,4.14,2.57"></path><path class="cls-1" d="M47.28,13.34a1.31,1.31,0,0,1,0-.28c0-1.42,1.86-2.57,4.15-2.57s4.14,1.15,4.14,2.57"></path><rect class="cls-1" x="2.43" y="1" width="24.67" height="14.29" rx="1.86" ry="1.86"></rect><rect class="cls-2" x="0.99" y="13.79" width="27.56" height="7.82" rx="3.43" ry="3.43"></rect><path class="cls-1" d="M5.28,13.34a1.31,1.31,0,0,1,0-.28c0-1.42,1.86-2.57,4.15-2.57s4.14,1.15,4.14,2.57"></path><path class="cls-1" d="M16,13.34a1.31,1.31,0,0,1,0-.28c0-1.42,1.86-2.57,4.15-2.57s4.14,1.15,4.14,2.57"></path></svg> 