<?xml version="1.0" encoding="UTF-8"?> <svg xmlns="http://www.w3.org/2000/svg" id="Capa_1" data-name="Capa 1" viewBox="0 0 42.76 25.95"><defs><style>.cls-1,.cls-2{fill:none;stroke:#000;stroke-linecap:round;stroke-width:2px;}.cls-1{stroke-miterlimit:10;}.cls-2{stroke-linejoin:round;}</style></defs><title>2 adultos y dos niños</title><g id="Capa_2" data-name="Capa 2"><g id="Capa_1-2" data-name="Capa 1-2"><path d="M18.24,6.08a3,3,0,1,0-3-3A3,3,0,0,0,18.24,6.08Zm0-4.05a1,1,0,1,1-1,1,1,1,0,0,1,1-1h0Z"></path><path d="M7.09,7H3a3,3,0,0,0-3,3v5.53A3.06,3.06,0,0,0,2,18.4v6.45a1,1,0,0,0,2,0V17.64a1,1,0,0,0-1-1,1,1,0,0,1-1-1V10.08a1,1,0,0,1,1-1H7.09a1,1,0,0,1,1,1v5.53a1,1,0,0,1-1,1,1,1,0,0,0-1,1V24.9a1,1,0,0,0,2,0V18.48a3.06,3.06,0,0,0,2-2.87V10.08A3,3,0,0,0,7.09,7Z"></path><path d="M23.29,16a9.43,9.43,0,0,0-1.56-3.14l.61-2a2.92,2.92,0,0,0-.41-2.56A2.83,2.83,0,0,0,19.7,7.05H16.86a2.84,2.84,0,0,0-2.23,1.21,2.92,2.92,0,0,0-.41,2.56l.61,2c-2.23,2.83-2.16,7.21-2.16,7.4a1,1,0,0,0,1,1H15.2v3.7a1,1,0,0,0,2,0v-4.7a1,1,0,0,0-1-1H14.73c.13-1.54.61-4,2-5.44a1,1,0,0,0,.23-1l-.77-2.55a.88.88,0,0,1,.13-.8A.86.86,0,0,1,17,9.07h2.72a.86.86,0,0,1,.63.36.88.88,0,0,1,.13.8l-.77,2.55a1,1,0,0,0,.23,1,6.91,6.91,0,0,1,1.48,2.79,11.89,11.89,0,0,1,.48,2.65H20.34a1,1,0,0,0-1,1v4.71a1,1,0,0,0,2,0v-3.7h1.52a1,1,0,0,0,1-1A15.52,15.52,0,0,0,23.29,16Z"></path><path d="M5.07,6.08a3,3,0,1,0-.15,0ZM5.07,2a1,1,0,1,1-1,1A1,1,0,0,1,5.07,2Z"></path></g></g><path d="M29.54,13.62a3,3,0,1,0-3-3A3,3,0,0,0,29.54,13.62Zm0-4a1,1,0,1,1-1,1,1,1,0,0,1,1-1h0Z"></path><path class="cls-1" d="M27.87,24.87V20.93a.08.08,0,0,0-.05-.07,1.6,1.6,0,0,1-1.1-1.52V16.75a1.68,1.68,0,0,1,1.68-1.67h1.88A1.68,1.68,0,0,1,32,16.75v2.59a1.6,1.6,0,0,1-1.19,1.55.09.09,0,0,0-.06.07v3.91"></path><path d="M38.48,13.81a3,3,0,1,0-3-3A3,3,0,0,0,38.48,13.81Zm0-4.05a1,1,0,1,1-1,1,1,1,0,0,1,1-1h0Z"></path><path class="cls-2" d="M36.8,25.06v-4.4H35.33a.55.55,0,0,1-.52-.72c.5-1.47,1.94-4.68,2.52-4.68h1.89c.64,0,2,3.24,2.4,4.7a.55.55,0,0,1-.52.7H39.65v4.4"></path></svg> 