<?xml version="1.0" encoding="UTF-8"?> <svg xmlns="http://www.w3.org/2000/svg" id="Capa_1" data-name="Capa 1" viewBox="0 0 71.9 22.61"><defs><style>.cls-1{fill:none;}.cls-1,.cls-2{stroke:#000;stroke-miterlimit:10;stroke-width:2px;}.cls-2{fill:#fff;}</style></defs><title>Dos King size</title><g id="Capa_2" data-name="Capa 2"><g id="Capa_1-2" data-name="Capa 1-2"><rect class="cls-1" x="39.25" y="1" width="31.65" height="14.29" rx="1.86" ry="1.86"></rect><rect class="cls-2" x="41.29" y="13.79" width="27.56" height="7.82" rx="3.43" ry="3.43"></rect><path class="cls-1" d="M45.65,13.34a1.31,1.31,0,0,1,0-.28c0-1.42,1.86-2.57,4.15-2.57s4.14,1.15,4.14,2.57"></path><path class="cls-1" d="M56.34,13.34a1.31,1.31,0,0,1,0-.28c0-1.42,1.86-2.57,4.15-2.57s4.14,1.15,4.14,2.57"></path></g></g><g id="Capa_2-2" data-name="Capa 2"><g id="Capa_1-2-2" data-name="Capa 1-2"><rect class="cls-1" x="1" y="1" width="31.65" height="14.29" rx="1.86" ry="1.86"></rect><rect class="cls-2" x="3.04" y="13.79" width="27.56" height="7.82" rx="3.43" ry="3.43"></rect><path class="cls-1" d="M7.4,13.34a1.31,1.31,0,0,1,0-.28c0-1.42,1.86-2.57,4.15-2.57s4.14,1.15,4.14,2.57"></path><path class="cls-1" d="M18.09,13.34a1.31,1.31,0,0,1,0-.28c0-1.42,1.86-2.57,4.15-2.57s4.14,1.15,4.14,2.57"></path></g></g></svg> 