<?xml version="1.0" encoding="UTF-8"?> <svg xmlns="http://www.w3.org/2000/svg" viewBox="0 0 23.89 25.95"><title>2-adul-1-ni</title><g id="Capa_2" data-name="Capa 2"><g id="Capa_1-2" data-name="Capa 1"><path d="M18.24,6.08a3,3,0,1,0-3-3A3,3,0,0,0,18.24,6.08Zm0-4.05a1,1,0,1,1-1,1A1,1,0,0,1,18.24,2Z"></path><path d="M7.09,7H3a3,3,0,0,0-3,3v5.53a3.06,3.06,0,0,0,2,2.87v6.45a1,1,0,1,0,2,0V17.64a1,1,0,0,0-1-1,1,1,0,0,1-1-1V10.08a1,1,0,0,1,1-1H7.09a1,1,0,0,1,1,1v5.53a1,1,0,0,1-1,1,1,1,0,0,0-1,1v7.29a1,1,0,1,0,2,0V18.48a3.06,3.06,0,0,0,2-2.87V10.08A3.05,3.05,0,0,0,7.09,7Z"></path><path d="M23.29,16a9.33,9.33,0,0,0-1.56-3.14l.61-2a2.92,2.92,0,0,0-.41-2.56A2.84,2.84,0,0,0,19.7,7.05H16.86a2.84,2.84,0,0,0-2.23,1.21,2.92,2.92,0,0,0-.41,2.56l.61,2c-2.23,2.83-2.16,7.21-2.16,7.4a1,1,0,0,0,1,1H15.2v3.7a1,1,0,1,0,2,0V20.22a1,1,0,0,0-1-1H14.73c.13-1.54.61-4,2-5.44a1,1,0,0,0,.23-1l-.77-2.55a.89.89,0,0,1,.13-.8.85.85,0,0,1,.63-.36h2.72a.85.85,0,0,1,.63.36.89.89,0,0,1,.13.8l-.77,2.55a1,1,0,0,0,.23,1,6.89,6.89,0,0,1,1.48,2.79,12.48,12.48,0,0,1,.48,2.65H20.34a1,1,0,0,0-1,1v4.71a1,1,0,1,0,2,0v-3.7h1.52a1,1,0,0,0,1-1A15.52,15.52,0,0,0,23.29,16Z"></path><path d="M5.07,6.08A3,3,0,1,0,2,3,3,3,0,0,0,5.07,6.08ZM5.07,2a1,1,0,1,1-1,1A1,1,0,0,1,5.07,2Z"></path></g></g></svg> 