<?xml version="1.0" encoding="UTF-8"?> <svg xmlns="http://www.w3.org/2000/svg" viewBox="0 0 28.39 24.28"><title>city-tour</title><g id="Capa_2" data-name="Capa 2"><g id="Capa_1-2" data-name="Capa 1"><path d="M22.4,24.28H6a6,6,0,0,1-6-6v-8a6,6,0,0,1,6-6H22.4a6,6,0,0,1,6,6v4.33a1,1,0,0,1-2,0V10.29a4,4,0,0,0-4-4H6a4,4,0,0,0-4,4v8a4,4,0,0,0,4,4H22.4a4,4,0,0,0,4-4,1,1,0,0,1,2,0A6,6,0,0,1,22.4,24.28Z"></path><path d="M14.2,21.17a6.89,6.89,0,1,1,6.89-6.89A6.91,6.91,0,0,1,14.2,21.17Zm0-11.78a4.89,4.89,0,1,0,4.89,4.89A4.91,4.91,0,0,0,14.2,9.39Z"></path><path d="M20.26,6.29H8.14V3.15A3.15,3.15,0,0,1,11.28,0h5.83a3.16,3.16,0,0,1,3.15,3.15Zm-10.12-2h8.12V3.15A1.15,1.15,0,0,0,17.11,2H11.28a1.14,1.14,0,0,0-1.14,1.15Z"></path><circle cx="23.37" cy="9.34" r="1.3"></circle><path d="M3.71,11H1V9H3.71a2,2,0,0,0,2-2V5.08h2V7A4,4,0,0,1,3.71,11Z"></path><path d="M14.2,18.47a4.19,4.19,0,1,1,4.18-4.19A4.2,4.2,0,0,1,14.2,18.47Zm0-6.37a2.19,2.19,0,1,0,2.18,2.18A2.19,2.19,0,0,0,14.2,12.1Z"></path></g></g></svg> 