<svg xmlns="http://www.w3.org/2000/svg" viewBox="0 0 71.57 12.02"><defs><style>.cls-1{fill:#fff;}</style></defs><title>decorator-1</title><g id="Capa_2" data-name="Capa 2"><g id="Capa_1-2" data-name="Capa 1"><path class="cls-1" d="M31.81,4.94a18.28,18.28,0,0,0-3.46,1.71,16.69,16.69,0,0,1-3.7,1.7A14.35,14.35,0,0,1,20,9.12,38,38,0,0,1,12,8,39,39,0,0,0,5.3,6.83c-1.87,0-2.8.54-2.8,1.63a.89.89,0,0,0,.25.66.78.78,0,0,0,.56.25.73.73,0,0,0,.51-.2,1.12,1.12,0,0,1,.92,1.17,1.58,1.58,0,0,1-.51,1.2A2,2,0,0,1,2.8,12a2.63,2.63,0,0,1-2-.86A3.21,3.21,0,0,1,0,8.86,3.11,3.11,0,0,1,1.68,6,3.1,3.1,0,0,1,0,3.16,3.17,3.17,0,0,1,.82.87,2.6,2.6,0,0,1,2.8,0,2,2,0,0,1,4.23.48a1.61,1.61,0,0,1,.51,1.2,1.08,1.08,0,0,1-.23.69,1.42,1.42,0,0,1-.43.38l-.26.1a.73.73,0,0,0-.51-.2.74.74,0,0,0-.56.28,1,1,0,0,0-.25.69c0,1,.93,1.58,2.8,1.58A39.39,39.39,0,0,0,12,4.05,38.63,38.63,0,0,1,20,2.9a17.06,17.06,0,0,1,8.61,2.6l-.82.36a17.16,17.16,0,0,0-7.64-2,17,17,0,0,0-2.57.23q-1.46.23-2.55.51l-2.9.76c-1.21.33-2.1.55-2.68.69l2.68.69c1.2.32,2.17.58,2.9.76s1.58.36,2.55.51a17,17,0,0,0,2.57.23A13.94,13.94,0,0,0,25.85,7c1.82-.82,3.55-1.63,5.2-2.45a10.75,10.75,0,0,1,4.76-1.22c.44,0,.85,0,1.22,0a6.14,6.14,0,0,1,1.12.21l.92.25a8.78,8.78,0,0,1,1,.38l.79.38.89.49.81.43-.66.41a12.52,12.52,0,0,0-6.06-1.73A11.2,11.2,0,0,0,31.81,4.94ZM71.57,8.86a3.21,3.21,0,0,1-.82,2.3,2.63,2.63,0,0,1-2,.86,2,2,0,0,1-1.43-.48,1.58,1.58,0,0,1-.51-1.2,1.16,1.16,0,0,1,.23-.71.79.79,0,0,1,.48-.36l.21-.1a.69.69,0,0,0,.51.2.78.78,0,0,0,.56-.25.89.89,0,0,0,.25-.66c0-1.09-.93-1.63-2.8-1.63A39.18,39.18,0,0,0,59.65,8a38.09,38.09,0,0,1-8,1.15A17.06,17.06,0,0,1,43,6.52l.82-.36a17.13,17.13,0,0,0,7.64,2A15.49,15.49,0,0,0,54.05,8c1-.17,1.83-.34,2.54-.51S58.28,7,59.52,6.7L62.15,6l-2.63-.69c-1.24-.32-2.21-.57-2.93-.74s-1.56-.34-2.54-.5a15.61,15.61,0,0,0-2.6-.26,15,15,0,0,0-4.82.76,14,14,0,0,0-3.51,1.69A15.62,15.62,0,0,1,39.89,8a11,11,0,0,1-4.08.76,11,11,0,0,1-1.55-.1c-.5-.07-.91-.15-1.25-.23A10.21,10.21,0,0,1,31.86,8,9.23,9.23,0,0,1,31,7.59l-1-.53L29,6.52l.71-.36.41.21.63.35a8,8,0,0,0,.89.39c.41.15.8.28,1.18.38a10.65,10.65,0,0,0,1.35.25,12.06,12.06,0,0,0,1.6.1,11,11,0,0,0,4-.76A17.57,17.57,0,0,0,43.2,5.37a16.54,16.54,0,0,1,3.66-1.7A14.63,14.63,0,0,1,51.6,2.9a38.76,38.76,0,0,1,8,1.15A39.59,39.59,0,0,0,66.27,5.2c1.87,0,2.8-.53,2.8-1.58a1,1,0,0,0-.25-.69.74.74,0,0,0-.56-.28.69.69,0,0,0-.51.2,1.12,1.12,0,0,1-.92-1.17,1.61,1.61,0,0,1,.51-1.2A2,2,0,0,1,68.77,0a2.6,2.6,0,0,1,2,.87,3.17,3.17,0,0,1,.82,2.29A3.1,3.1,0,0,1,69.89,6,3.11,3.11,0,0,1,71.57,8.86Z"></path></g></g></svg>