<svg xmlns="http://www.w3.org/2000/svg" viewBox="0 0 47.38 38.75"><defs><style>.cls-hot-logo{fill:#8c8155;}</style></defs><title>hotel-logo</title><g id="Capa_2" data-name="Capa 2"><g id="Capa_1-2" data-name="Capa 1"><path class="cls-hot-logo" d="M16.46.93a20.33,20.33,0,0,1,6-.93q4.65,0,7.08,1.76a9.1,9.1,0,0,0,1.35.72A13.34,13.34,0,0,0,32.29,3a5.67,5.67,0,0,1,.78.26,15.59,15.59,0,0,1,2.06,1.52A4.87,4.87,0,0,0,37.25,6a2.92,2.92,0,0,0,1.81-.51,10.12,10.12,0,0,0,.88-.91A14.92,14.92,0,0,1,41.2,3.36a1.69,1.69,0,0,1,.91-.52c.31,0,.46.81.46,2.33v.46a5.64,5.64,0,0,0,1.06-.85,4.37,4.37,0,0,1,1.11-.85c.11,0,.16.12.16.36a2.24,2.24,0,0,1-.26.9,8.46,8.46,0,0,1-.52,1l-.26.41c0,2.34.64,3.88,1.92,4.6a5.79,5.79,0,0,1,1,.83c.43.41.63.67.6.77-.07.31-.4.61-1,.91A3.47,3.47,0,0,1,45,14.1a20.06,20.06,0,0,0-2.89-.67c-.18,0-.61-.07-1.3-.1s-1.35-.08-2-.13a6.36,6.36,0,0,1-1.53-.28,9.78,9.78,0,0,0-3-.68h-.1a.35.35,0,0,1-.16.06,4.55,4.55,0,0,0,1.79.95c.91.33,1.37.72,1.37,1.16s-.47.47-1.4.47a5.34,5.34,0,0,1-2.81-1A26.55,26.55,0,0,1,30.2,12a3.81,3.81,0,0,0-1.53-.93,4.22,4.22,0,0,0,.68,1.21,5.85,5.85,0,0,0,1.08,1.32,9.16,9.16,0,0,0,1.4.7,10.2,10.2,0,0,1,1.7.88,1.21,1.21,0,0,1,.67,1q0,.36-1.08.36A4.29,4.29,0,0,1,29.4,15a9.84,9.84,0,0,0-1.29-1.24c-.73-.62-1.16-1-1.3-1.13a12.46,12.46,0,0,1-1.11-1.78,6.45,6.45,0,0,0-1.06-1.63,12.18,12.18,0,0,0-1.05-.62c-.68-.38-1.36-.74-2.05-1.09A4.08,4.08,0,0,0,20.15,7a6.56,6.56,0,0,1,.05.82,3.25,3.25,0,0,1-.72,2.28,3.41,3.41,0,0,1-1.42,1c-.47.14-.7.22-.7.26s.25.49.75,1a2.1,2.1,0,0,0,1.37.7,1.81,1.81,0,0,0,.36,0,1.13,1.13,0,0,1,.31-.05,1.81,1.81,0,0,1,1.14.36,1,1,0,0,1,.46.82c0,.38-.45.57-1.34.57a5.68,5.68,0,0,1-2.56-1.11,11.49,11.49,0,0,1-2.35-1.83,3.47,3.47,0,0,1-1.5.41,13.23,13.23,0,0,1-1.34-.1,14,14,0,0,0-1.45-.11,7.35,7.35,0,0,0,1.71,2.28,3.75,3.75,0,0,0,.8.08,3.87,3.87,0,0,1,1.26.23c.38.14.57.36.57.67a.74.74,0,0,1-.41.62,1.76,1.76,0,0,1-.93.26,3.22,3.22,0,0,1-1.86-.6,4.09,4.09,0,0,1-1.29-1.26c-.21-.31-.55-.76-1-1.35s-.9-1.08-1.26-1.49a5,5,0,0,1-.55-.68c0-.13.15-.26.44-.38a2.56,2.56,0,0,1,1-.18,4.88,4.88,0,0,1,1,.18,5.08,5.08,0,0,0,1.09.18c.58,0,.88-.14.88-.42s-.3-.55-.88-1.16A2.68,2.68,0,0,1,10.85,7,6.27,6.27,0,0,1,11,5.79Q6,7.8,6,12.35a13.86,13.86,0,0,0,.73,4.49A17.34,17.34,0,0,0,8.5,20.56q1,1.61,2,3.15a18.26,18.26,0,0,1,1.76,3.41A10.54,10.54,0,0,1,13,31a11.46,11.46,0,0,1-.7,3.95,10.7,10.7,0,0,1-1.42,2.87l-.72,1a13.26,13.26,0,0,0-1.4-4.57A24.89,24.89,0,0,0,6.2,30.07q-1.44-1.86-2.87-3.82A19,19,0,0,1,1,21.7a15.44,15.44,0,0,1-1-5.43,10.67,10.67,0,0,1,1.06-4.72A11.48,11.48,0,0,1,3.51,8.06,16.85,16.85,0,0,1,6.77,5.73a21.87,21.87,0,0,1,3-1.44c.78-.28,1.49-.5,2.14-.67A9.43,9.43,0,0,1,16.46.93Z"></path></g></g></svg>