<svg xmlns="http://www.w3.org/2000/svg" viewBox="0 0 22.7 27.24"><defs><style>.cls-ico-contact-phone{fill:#836544;}</style></defs><title>ico-contact-phone</title><g id="Capa_2" data-name="Capa 2"><g id="Capa_1-2" data-name="Capa 1"><path class="cls-ico-contact-phone" d="M19.34,27.24h-16A3.37,3.37,0,0,1,0,23.88V3.36A3.37,3.37,0,0,1,3.36,0h16A3.36,3.36,0,0,1,22.7,3.36V23.88A3.36,3.36,0,0,1,19.34,27.24ZM3.36,2A1.36,1.36,0,0,0,2,3.36V23.88a1.36,1.36,0,0,0,1.36,1.36h16a1.36,1.36,0,0,0,1.36-1.36V3.36A1.36,1.36,0,0,0,19.34,2Z"></path><circle class="cls-ico-contact-phone" cx="11.35" cy="22.03" r="1.68"></circle></g></g></svg>