<svg xmlns="http://www.w3.org/2000/svg" viewBox="0 0 24.7 24.69"><defs><style>.cls-ico-contact-wp{fill:#836544;}</style></defs><title>ico-contact-wp</title><g id="Capa_2" data-name="Capa 2"><g id="Capa_1-2" data-name="Capa 1"><path class="cls-ico-contact-wp" d="M12.35,24.69a12.18,12.18,0,0,1-6.43-1.9l0,0L.53,24.14,2,19l0,0A12.47,12.47,0,0,1,0,12.25,12.35,12.35,0,1,1,12.35,24.69Zm-6.2-4.05.78.43a10.26,10.26,0,0,0,5.42,1.62A10.35,10.35,0,1,0,12.3,2,10.29,10.29,0,0,0,2,12.25a10.41,10.41,0,0,0,1.6,5.57l.52.77-.75,2.76Z"></path><path class="cls-ico-contact-wp" d="M19,15.69l-.15.68a2.25,2.25,0,0,1-1,1.46,3.35,3.35,0,0,1-2.82.33,13.72,13.72,0,0,1-7.48-5.44A5.74,5.74,0,0,1,6.17,8.29,3.35,3.35,0,0,1,7.36,6.51a.56.56,0,0,1,.38-.14l.85,0,1.35,3L8.83,10.67a.86.86,0,0,0-.14,1,9.57,9.57,0,0,0,5.23,4.49.87.87,0,0,0,.95-.25L16,14.36Z"></path></g></g></svg>