<svg xmlns="http://www.w3.org/2000/svg" viewBox="0 0 24.85 19.43"><defs><style>.cls-ico-contact-email{fill:#836544;}</style></defs><title>email</title><g id="Capa_2" data-name="Capa 2"><g id="Capa_1-2" data-name="Capa 1"><path class="cls-ico-contact-email" d="M21.79,19.43H3.06A3.07,3.07,0,0,1,0,16.37V3.06A3.06,3.06,0,0,1,3.06,0H21.79a3.06,3.06,0,0,1,3.06,3.06V16.37A3.07,3.07,0,0,1,21.79,19.43ZM3.06,2A1.05,1.05,0,0,0,2,3.06V16.37a1.06,1.06,0,0,0,1.06,1.06H21.79a1.06,1.06,0,0,0,1.06-1.06V3.06A1.05,1.05,0,0,0,21.79,2Z"></path><path class="cls-ico-contact-email" d="M12.43,12.48a4.27,4.27,0,0,1-2.08-.54L3.41,8.12a1,1,0,1,1,1-1.75l6.94,3.82a2.27,2.27,0,0,0,2.23,0l6.94-3.82a1,1,0,0,1,1,1.75l-6.94,3.82A4.3,4.3,0,0,1,12.43,12.48Z"></path><path class="cls-ico-contact-email" d="M3.89,14a1,1,0,0,1-.49-1.88L8.59,9.22a1,1,0,0,1,1,1.76L4.37,13.84A1.07,1.07,0,0,1,3.89,14Z"></path><path class="cls-ico-contact-email" d="M21,14a1.07,1.07,0,0,1-.48-.12L15.29,11a1,1,0,0,1,1-1.76l5.19,2.86A1,1,0,0,1,21,14Z"></path></g></g></svg>