<?xml version="1.0" encoding="UTF-8"?> <svg xmlns="http://www.w3.org/2000/svg" xmlns:xlink="http://www.w3.org/1999/xlink" viewBox="0 0 1681 501.2"><defs><style>.cls-1,.cls-2{fill:none;}.cls-2{stroke:#000;stroke-miterlimit:10;}.cls-3{opacity:0.1;fill:url(#Motivo_nuevo_2);}</style><pattern id="Motivo_nuevo_2" data-name="Motivo nuevo 2" width="374.97" height="240.36" patternTransform="translate(435.01 -180.77)" patternUnits="userSpaceOnUse" viewBox="0 0 374.97 240.36"><rect class="cls-1" width="374.97" height="240.36"></rect><circle class="cls-2" cx="375.47" cy="241.32" r="34"></circle><circle class="cls-2" cx="375.47" cy="207.32" r="34"></circle><circle class="cls-2" cx="341.47" cy="241.32" r="34"></circle><circle class="cls-2" cx="0.5" cy="241.32" r="34"></circle><circle class="cls-2" cx="0.5" cy="207.32" r="34"></circle><circle class="cls-2" cx="-33.5" cy="241.32" r="34"></circle><circle class="cls-2" cx="34.5" cy="241.32" r="34"></circle><circle class="cls-2" cx="102.49" cy="241.32" r="34"></circle><circle class="cls-2" cx="170.49" cy="241.32" r="34"></circle><circle class="cls-2" cx="238.48" cy="241.32" r="34"></circle><circle class="cls-2" cx="306.47" cy="241.32" r="34"></circle><circle class="cls-2" cx="375.47" cy="102.95" r="34"></circle><circle class="cls-2" cx="375.47" cy="170.95" r="34"></circle><circle class="cls-2" cx="375.47" cy="137.41" r="34"></circle><circle class="cls-2" cx="375.47" cy="68.95" r="34"></circle><circle class="cls-2" cx="375.47" cy="0.96" r="34"></circle><circle class="cls-2" cx="375.47" cy="-33.04" r="34"></circle><circle class="cls-2" cx="341.47" cy="0.96" r="34"></circle><circle class="cls-2" cx="375.47" cy="34.96" r="34"></circle><circle class="cls-2" cx="34.5" cy="34.5" r="34"></circle><circle class="cls-2" cx="68.49" cy="34.5" r="34"></circle><circle class="cls-2" cx="34.5" cy="68.95" r="34"></circle><circle class="cls-2" cx="68.49" cy="68.95" r="34"></circle><circle class="cls-2" cx="102.49" cy="34.5" r="34"></circle><circle class="cls-2" cx="136.49" cy="34.5" r="34"></circle><circle class="cls-2" cx="102.49" cy="68.95" r="34"></circle><circle class="cls-2" cx="136.49" cy="68.95" r="34"></circle><circle class="cls-2" cx="170.49" cy="34.5" r="34"></circle><circle class="cls-2" cx="204.48" cy="34.5" r="34"></circle><circle class="cls-2" cx="170.49" cy="68.95" r="34"></circle><circle class="cls-2" cx="204.48" cy="68.95" r="34"></circle><circle class="cls-2" cx="238.48" cy="34.5" r="34"></circle><circle class="cls-2" cx="272.48" cy="34.5" r="34"></circle><circle class="cls-2" cx="238.48" cy="68.95" r="34"></circle><circle class="cls-2" cx="272.48" cy="68.95" r="34"></circle><circle class="cls-2" cx="306.47" cy="34.5" r="34"></circle><circle class="cls-2" cx="340.47" cy="34.5" r="34"></circle><circle class="cls-2" cx="306.47" cy="68.95" r="34"></circle><circle class="cls-2" cx="340.47" cy="68.95" r="34"></circle><circle class="cls-2" cx="34.5" cy="102.95" r="34"></circle><circle class="cls-2" cx="68.49" cy="102.95" r="34"></circle><circle class="cls-2" cx="0.5" cy="102.95" r="34"></circle><circle class="cls-2" cx="0.5" cy="170.95" r="34"></circle><circle class="cls-2" cx="0.5" cy="137.41" r="34"></circle><circle class="cls-2" cx="0.5" cy="68.95" r="34"></circle><circle class="cls-2" cx="0.5" cy="0.96" r="34"></circle><circle class="cls-2" cx="0.5" cy="-33.04" r="34"></circle><circle class="cls-2" cx="-33.5" cy="0.96" r="34"></circle><circle class="cls-2" cx="34.5" cy="0.96" r="34"></circle><circle class="cls-2" cx="102.49" cy="0.96" r="34"></circle><circle class="cls-2" cx="170.49" cy="0.96" r="34"></circle><circle class="cls-2" cx="238.48" cy="0.96" r="34"></circle><circle class="cls-2" cx="306.47" cy="0.96" r="34"></circle><circle class="cls-2" cx="0.5" cy="34.96" r="34"></circle><circle class="cls-2" cx="34.5" cy="137.41" r="34"></circle><circle class="cls-2" cx="68.49" cy="137.41" r="34"></circle><circle class="cls-2" cx="102.49" cy="102.95" r="34"></circle><circle class="cls-2" cx="136.49" cy="102.95" r="34"></circle><circle class="cls-2" cx="102.49" cy="137.41" r="34"></circle><circle class="cls-2" cx="136.49" cy="137.41" r="34"></circle><circle class="cls-2" cx="170.49" cy="102.95" r="34"></circle><circle class="cls-2" cx="204.48" cy="102.95" r="34"></circle><circle class="cls-2" cx="170.49" cy="137.41" r="34"></circle><circle class="cls-2" cx="204.48" cy="137.41" r="34"></circle><circle class="cls-2" cx="238.48" cy="102.95" r="34"></circle><circle class="cls-2" cx="272.48" cy="102.95" r="34"></circle><circle class="cls-2" cx="238.48" cy="137.41" r="34"></circle><circle class="cls-2" cx="272.48" cy="137.41" r="34"></circle><circle class="cls-2" cx="306.47" cy="102.95" r="34"></circle><circle class="cls-2" cx="340.47" cy="102.95" r="34"></circle><circle class="cls-2" cx="306.47" cy="137.41" r="34"></circle><circle class="cls-2" cx="340.47" cy="137.41" r="34"></circle><circle class="cls-2" cx="34.5" cy="171.4" r="34"></circle><circle class="cls-2" cx="68.49" cy="171.4" r="34"></circle><circle class="cls-2" cx="34.5" cy="205.86" r="34"></circle><circle class="cls-2" cx="68.49" cy="205.86" r="34"></circle><circle class="cls-2" cx="102.49" cy="171.4" r="34"></circle><circle class="cls-2" cx="136.49" cy="171.4" r="34"></circle><circle class="cls-2" cx="102.49" cy="205.86" r="34"></circle><circle class="cls-2" cx="136.49" cy="205.86" r="34"></circle><circle class="cls-2" cx="170.49" cy="171.4" r="34"></circle><circle class="cls-2" cx="204.48" cy="171.4" r="34"></circle><circle class="cls-2" cx="170.49" cy="205.86" r="34"></circle><circle class="cls-2" cx="204.48" cy="205.86" r="34"></circle><circle class="cls-2" cx="238.48" cy="171.4" r="34"></circle><circle class="cls-2" cx="272.48" cy="171.4" r="34"></circle><circle class="cls-2" cx="238.48" cy="205.86" r="34"></circle><circle class="cls-2" cx="272.48" cy="205.86" r="34"></circle><circle class="cls-2" cx="306.47" cy="171.4" r="34"></circle><circle class="cls-2" cx="340.47" cy="171.4" r="34"></circle><circle class="cls-2" cx="306.47" cy="205.86" r="34"></circle><circle class="cls-2" cx="340.47" cy="205.86" r="34"></circle></pattern></defs><title>pattern-c-to-action</title><g id="Capa_2" data-name="Capa 2"><g id="Capa_1-2" data-name="Capa 1"><rect class="cls-3" width="1681" height="501.2"></rect></g></g></svg> 