<svg xmlns="http://www.w3.org/2000/svg" viewBox="0 0 22.8 15.31"><defs><style>.cls-reserv-blue{fill:#0f172b;}</style></defs><title>reservar-icon-black</title><g id="Capa_2" data-name="Capa 2"><g id="Capa_1-2" data-name="Capa 1"><path class="cls-reserv-blue" d="M21.75,15.31H1.06A1.06,1.06,0,0,1,0,14.25v-3c0-3,1.22-5.19,3.62-6.41A16.34,16.34,0,0,1,10.35,3.6V2.11h-.9A1.06,1.06,0,0,1,9.45,0h3.91a1.06,1.06,0,0,1,0,2.11h-.9V3.6a17.13,17.13,0,0,1,6.17,1,6.35,6.35,0,0,1,4.06,5.14,1.05,1.05,0,0,1-2.08.33c-.5-3.16-3.08-4.39-9.21-4.39-2.2,0-5,.12-6.83,1.07-1.68.84-2.45,2.28-2.45,4.52v1.9H21.75a1.06,1.06,0,0,1,0,2.12Z"></path></g></g></svg>