<svg xmlns="http://www.w3.org/2000/svg" viewBox="0 0 64.96 64.95"><defs><style>.cls-rservice{fill:#836544;}.cls-2{opacity:0.1;}</style></defs><title>room-service</title><g id="Capa_2" data-name="Capa 2"><g id="Capa_1-2" data-name="Capa 1"><circle class="cls-rservice" cx="13.41" cy="54.87" r="1.22"></circle><circle class="cls-rservice" cx="13.41" cy="50.58" r="1.22"></circle><path class="cls-rservice" d="M22.85,54.25a1.23,1.23,0,1,0,0,2.45H25.3a1.23,1.23,0,0,0,0-2.45Z"></path><path class="cls-rservice" d="M31.28,56.5a1.23,1.23,0,0,0-2.4.5,1.28,1.28,0,0,1-.26,1.08,1.24,1.24,0,0,1-1,.46H19.48V48.31a1.26,1.26,0,0,0-.43-.93L18,46.48a13.48,13.48,0,0,1,8.89,5.79,1.22,1.22,0,0,0,2-1.37,15.9,15.9,0,0,0-8.25-6.27A8.31,8.31,0,0,0,24,38a8.19,8.19,0,0,0-.28-2.15.92.92,0,0,0-.09-.23V33.31A3.68,3.68,0,0,0,20,29.63H11.39a3.68,3.68,0,0,0-3.67,3.68v2.22a1.12,1.12,0,0,0,0,.13A8.51,8.51,0,0,0,7.35,38a8.32,8.32,0,0,0,3.35,6.67A15.9,15.9,0,0,0,.08,56.5a3.73,3.73,0,0,0,.76,3.12A3.68,3.68,0,0,0,3.72,61H27.64a3.73,3.73,0,0,0,3.64-4.49ZM10.17,33.31a1.23,1.23,0,0,1,1.22-1.23H20a1.23,1.23,0,0,1,1.22,1.23v1.22h-11ZM9.8,38a6.37,6.37,0,0,1,.08-1h11.6a6.37,6.37,0,0,1,.08,1A5.88,5.88,0,0,1,16,43.83h-.58A5.88,5.88,0,0,1,9.8,38ZM17,58.54H3.72a1.24,1.24,0,0,1-1-.46A1.28,1.28,0,0,1,2.48,57,13.55,13.55,0,0,1,14.11,46.37L17,48.88Z"></path><g class="cls-2"><circle class="cls-rservice" cx="27.79" cy="52.26" r="2.54"></circle><circle class="cls-rservice" cx="27.79" cy="43.38" r="2.54"></circle><path class="cls-rservice" d="M47.32,51a2.54,2.54,0,0,0,0,5.07H52.4a2.54,2.54,0,1,0,0-5.07Z"></path><path class="cls-rservice" d="M64.79,55.65a2.53,2.53,0,0,0-5,1,2.68,2.68,0,0,1-.54,2.22,2.58,2.58,0,0,1-2,1H40.34V38.69a2.53,2.53,0,0,0-.89-1.92L37.29,34.9a27.92,27.92,0,0,1,18.41,12,2.54,2.54,0,1,0,4.21-2.83,33,33,0,0,0-17.1-13,17.21,17.21,0,0,0,6.34-18.27,2.07,2.07,0,0,0-.18-.47V7.61A7.61,7.61,0,0,0,41.36,0H23.6A7.62,7.62,0,0,0,16,7.61v4.61c0,.09-.07.18-.09.27a17.05,17.05,0,0,0-.67,4.76,17.25,17.25,0,0,0,6.93,13.82,33,33,0,0,0-22,24.58,7.74,7.74,0,0,0,1.57,6.46,7.65,7.65,0,0,0,6,2.84H57.26a7.71,7.71,0,0,0,7.53-9.3Zm-43.72-48A2.54,2.54,0,0,1,23.6,5.07H41.36A2.54,2.54,0,0,1,43.9,7.61v2.54H21.07Zm-.77,9.64a12.54,12.54,0,0,1,.17-2h24a12.54,12.54,0,0,1,.17,2A12.2,12.2,0,0,1,33.09,29.42h-1.2A12.2,12.2,0,0,1,20.3,17.25Zm15,42.63H7.71a2.56,2.56,0,0,1-2-1,2.65,2.65,0,0,1-.54-2.22,28,28,0,0,1,24.09-22l6,5.18Z"></path></g></g></g></svg>