<svg xmlns="http://www.w3.org/2000/svg" viewBox="0 0 75.2 53.15"><defs><style>.cls-1-serv-ad-7{opacity:0.1;}.cls-1-serv-ad-5-2{fill:#836544;}</style></defs><title>serv-adicional_5</title><g id="Capa_2" data-name="Capa 2"><g id="Capa_1-2" data-name="Capa 1"><g class="cls-1-serv-ad-7"><path class="cls-1-serv-ad-5-2" d="M22.22,40h-.31A20,20,0,0,1,6.35,30.15a19.63,19.63,0,0,1-2.73-9A20,20,0,0,1,26.52.21l.32.07L54.63,8.41a5.19,5.19,0,0,1,3.73,4.69l.56,9.9a5.2,5.2,0,0,1-3.18,5.08L31.3,38.32a2.18,2.18,0,0,1-1.68-4l2-.85.27-.3.54,0,21.6-9a.84.84,0,0,0,.51-.82L54,13.35a.85.85,0,0,0-.61-.76L25.75,4.5A15.66,15.66,0,0,0,8,20.91a15.28,15.28,0,0,0,2.14,7,15.66,15.66,0,0,0,12.17,7.72A2.18,2.18,0,0,1,22.22,40Z" transform="translate(0 0)"></path><path class="cls-1-serv-ad-5-2" d="M12.33,52.66h0L5.91,53A5.61,5.61,0,0,1,.28,45.63L6.17,28.35l4.12,1.41L4.41,47a1.25,1.25,0,0,0,.2,1.14,1.27,1.27,0,0,0,1.07.5l6.4-.34h0a1.27,1.27,0,0,0,1.13-.86l3.66-11.17L21,37.63,17.35,48.8A5.65,5.65,0,0,1,12.33,52.66Z" transform="translate(0 0)"></path><path class="cls-1-serv-ad-5-2" d="M22.66,30.42a10.32,10.32,0,1,1,9.72-10.88A10.34,10.34,0,0,1,22.66,30.42Zm-.92-16.26A6,6,0,1,0,28,19.78,6,6,0,0,0,21.74,14.16Z" transform="translate(0 0)"></path><path class="cls-1-serv-ad-5-2" d="M70,17.09a4.88,4.88,0,0,1-3.91-1.57c-.63-.67-1.79.29-1.92.41a2.18,2.18,0,0,1-2.89-3.26c1.76-1.58,5.33-2.93,8-.15.61.64,1.94-.44,2-.45A2.17,2.17,0,0,1,74,15.39,6.92,6.92,0,0,1,70,17.09Z" transform="translate(0 0)"></path><path class="cls-1-serv-ad-5-2" d="M70.43,24.39a4.87,4.87,0,0,1-3.92-1.58c-.63-.66-1.79.3-1.92.41A2.17,2.17,0,0,1,61.7,20c1.76-1.58,5.33-2.93,8-.16.61.65,1.94-.43,2-.44a2.17,2.17,0,0,1,2.81,3.32A7,7,0,0,1,70.43,24.39Z" transform="translate(0 0)"></path><path class="cls-1-serv-ad-5-2" d="M44.53,23.77a2.18,2.18,0,0,1-2.3-2.05L41.44,7.58a2.18,2.18,0,0,1,4.35-.24l.79,14.13A2.18,2.18,0,0,1,44.53,23.77Z" transform="translate(0 0)"></path></g><path class="cls-1-serv-ad-5-2" d="M12.48,45.93h-.17a11.15,11.15,0,0,1-8.64-5.47,11,11,0,0,1-1.51-5,11.18,11.18,0,0,1,9.52-11.64,11,11,0,0,1,3.19,0l.18,0,15.43,4.51A2.89,2.89,0,0,1,32.55,31l.31,5.49a2.88,2.88,0,0,1-1.77,2.82L17.52,45a1.22,1.22,0,0,1-1.58-.65,1.21,1.21,0,0,1,.65-1.58l1.13-.47.15-.17.3,0,12-5a.47.47,0,0,0,.29-.45l-.31-5.5a.48.48,0,0,0-.34-.42L14.44,26.22a8.54,8.54,0,0,0-2.42,0,8.75,8.75,0,0,0-7.45,9.1,8.55,8.55,0,0,0,1.19,3.91,8.7,8.7,0,0,0,6.75,4.28,1.21,1.21,0,0,1,0,2.41Z" transform="translate(0 0)"></path><path class="cls-1-serv-ad-5-2" d="M7,53H7l-3.55.19A3.12,3.12,0,0,1,.3,49.06l3.27-9.6,2.29.78L2.59,49.83a.68.68,0,0,0,.12.63.67.67,0,0,0,.59.27l3.55-.18h0a.71.71,0,0,0,.62-.48l2-6.21,2.3.76-2,6.2A3.14,3.14,0,0,1,7,53Z" transform="translate(0 0)"></path><path class="cls-1-serv-ad-5-2" d="M12.73,40.61a5.73,5.73,0,1,1,5.4-6A5.74,5.74,0,0,1,12.73,40.61Zm-.51-9a3.32,3.32,0,1,0,3.49,3.13A3.32,3.32,0,0,0,12.22,31.58Z" transform="translate(0 0)"></path><path class="cls-1-serv-ad-5-2" d="M39,33.21a2.68,2.68,0,0,1-2.17-.87c-.35-.37-1,.16-1.07.22a1.21,1.21,0,0,1-1.61-1.8,3.14,3.14,0,0,1,4.43-.09c.34.36,1.08-.24,1.09-.25a1.21,1.21,0,0,1,1.56,1.85A3.88,3.88,0,0,1,39,33.21Z" transform="translate(0 0)"></path><path class="cls-1-serv-ad-5-2" d="M39.25,37.26a2.71,2.71,0,0,1-2.18-.87c-.35-.37-1,.16-1.06.23a1.21,1.21,0,0,1-1.7-.12,1.2,1.2,0,0,1,.09-1.69,3.14,3.14,0,0,1,4.43-.09c.34.36,1.08-.24,1.09-.25a1.21,1.21,0,0,1,1.56,1.85A3.88,3.88,0,0,1,39.25,37.26Z" transform="translate(0 0)"></path><path class="cls-1-serv-ad-5-2" d="M24.87,36.92a1.19,1.19,0,0,1-1.27-1.14l-.45-7.85a1.21,1.21,0,0,1,2.42-.13L26,35.64A1.21,1.21,0,0,1,24.87,36.92Z" transform="translate(0 0)"></path></g></g></svg>