<svg xmlns="http://www.w3.org/2000/svg" viewBox="0 0 49.37 60.99"><defs><style>.cls-1-serv-ad-2{fill:#836544;}.cls-2{opacity:0.1;}</style></defs><title>serv-adicional</title><g id="Capa_2" data-name="Capa 2"><g id="Capa_1-2" data-name="Capa 1"><path class="cls-1-serv-ad-2" d="M12.71,51.7a8.71,8.71,0,0,1-.08-17.42h.15A8.73,8.73,0,0,1,21.42,43a7.67,7.67,0,0,1-.08,1.17A8.73,8.73,0,0,1,12.71,51.7Zm.07-15.58h-.14a6.87,6.87,0,1,0,6.87,7.79,5.7,5.7,0,0,0,.07-.92A6.89,6.89,0,0,0,12.78,36.12Z"></path><path class="cls-1-serv-ad-2" d="M4.2,45l-.11-.8A9.08,9.08,0,0,1,4,43a8.73,8.73,0,0,1,8.62-8.71h.81l.11.8a7.59,7.59,0,0,1,.09,1.17A8.73,8.73,0,0,1,5,45Zm7.59-8.78A6.9,6.9,0,0,0,5.86,43v.06a6.9,6.9,0,0,0,5.93-6.81Z"></path><path class="cls-1-serv-ad-2" d="M21.23,45h-.81a8.73,8.73,0,0,1-8.63-8.71,9.2,9.2,0,0,1,.08-1.17l.11-.8h.81A8.73,8.73,0,0,1,21.42,43a7.67,7.67,0,0,1-.08,1.17Zm-7.59-8.78v.06a6.9,6.9,0,0,0,5.94,6.81V43A6.91,6.91,0,0,0,13.64,36.18Z"></path><path class="cls-1-serv-ad-2" d="M17.78,37.34a2,2,0,0,1-1-.27l-1.3-.75a2,2,0,0,1-.94-1.24,2,2,0,0,1,.2-1.54l1.67-2.89a2,2,0,0,1,1.23-.95,2,2,0,0,1,1.55.21l1.3.74a2,2,0,0,1,.74,2.78l-1.67,2.9a2,2,0,0,1-1.23.94A2,2,0,0,1,17.78,37.34Zm.38-5.86a.21.21,0,0,0-.17.09l-1.67,2.89a.2.2,0,0,0,.07.26h0l1.3.75a.19.19,0,0,0,.25-.07l1.67-2.89a.19.19,0,0,0-.07-.26l-1.3-.75Z"></path><path class="cls-1-serv-ad-2" d="M20.69,40.06a2.05,2.05,0,0,1-1.62-.8l-.91-1.2a2,2,0,0,1,.4-2.85l2.66-2a2,2,0,0,1,1.5-.39,2,2,0,0,1,1.35.79l.9,1.19a2,2,0,0,1-.39,2.85l-2.66,2A2,2,0,0,1,20.69,40.06Zm1.75-5.43a.2.2,0,0,0-.11,0l-2.66,2a.21.21,0,0,0,0,.26h0l.91,1.2a.19.19,0,0,0,.26,0l2.67-2a.2.2,0,0,0,0-.26l-.9-1.2A.24.24,0,0,0,22.44,34.63Z"></path><path class="cls-1-serv-ad-2" d="M20.92,43.39a1.82,1.82,0,0,1-1.79-1.55L19,40.65a1.81,1.81,0,0,1,1.54-2l2.64-.39a1.83,1.83,0,0,1,2.06,1.53l.17,1.19A1.83,1.83,0,0,1,23.83,43l-2.65.38Zm-.13-3L21,41.57l2.61-.41L23.36,40Z"></path><path class="cls-1-serv-ad-2" d="M7.61,37.34a1.93,1.93,0,0,1-.53-.07,2.05,2.05,0,0,1-1.24-.94l-1.66-2.9a2,2,0,0,1,.74-2.78l1.3-.75A2,2,0,0,1,9,30.65l1.67,2.89a2,2,0,0,1-.75,2.78l-1.3.75A2,2,0,0,1,7.61,37.34Zm-.39-5.86-.08,0-1.3.75a.19.19,0,0,0-.07.26L7.44,35.4a.21.21,0,0,0,.26.07L9,34.72a.21.21,0,0,0,.07-.26L7.4,31.57A.23.23,0,0,0,7.22,31.48Z"></path><path class="cls-1-serv-ad-2" d="M4.69,40.06a2,2,0,0,1-1.22-.41l-2.66-2A2,2,0,0,1,0,36.29a2,2,0,0,1,.39-1.51l.91-1.19a2,2,0,0,1,1.34-.79,2,2,0,0,1,1.51.39l2.66,2a2,2,0,0,1,.39,2.85h0l-.9,1.2A2,2,0,0,1,5,40ZM1.88,35.9a.19.19,0,0,0,0,.26l2.66,2a.23.23,0,0,0,.27,0l.9-1.2a.2.2,0,0,0,0-.26l-2.67-2a.15.15,0,0,0-.1,0"></path><path class="cls-1-serv-ad-2" d="M4.47,43.39l-.27,0L1.56,43A1.82,1.82,0,0,1,0,40.93L.2,39.74a1.82,1.82,0,0,1,2.06-1.53l2.64.39a1.8,1.8,0,0,1,1.53,2l-.17,1.19A1.82,1.82,0,0,1,4.47,43.39ZM2,40,1.85,41.2l2.62.34.13-1.12Zm2.62.34h0Z"></path><circle class="cls-1-serv-ad-2" cx="10.46" cy="45.38" r="1.56"></circle><circle class="cls-1-serv-ad-2" cx="14.79" cy="45.38" r="1.56"></circle><path class="cls-1-serv-ad-2" d="M12.71,61a17.48,17.48,0,0,1-7.64-1.83l-.93-.45,2.09-3.33,1.56,1-1,1.55a14.71,14.71,0,0,0,11.81,0l-1-1.55,1.56-1,2.09,3.33-.93.45A17.49,17.49,0,0,1,12.71,61Z"></path><path class="cls-1-serv-ad-2" d="M1.59,54.6.29,53.3a13.52,13.52,0,0,0,3.79-9.23L5.93,44A15.16,15.16,0,0,1,1.59,54.6Z"></path><path class="cls-1-serv-ad-2" d="M23.7,54.6A15.08,15.08,0,0,1,19.37,44l1.84.08A13.58,13.58,0,0,0,25,53.3Z"></path><path class="cls-1-serv-ad-2" d="M7.45,56.85A2.9,2.9,0,1,1,10.34,54,2.9,2.9,0,0,1,7.45,56.85Zm0-4A1.05,1.05,0,1,0,8.5,54,1.06,1.06,0,0,0,7.45,52.9Z"></path><path class="cls-1-serv-ad-2" d="M18,56.85a2.9,2.9,0,1,1,2.9-2.9A2.9,2.9,0,0,1,18,56.85Zm0-4A1.05,1.05,0,1,0,19,54,1,1,0,0,0,18,52.9Z"></path><g class="cls-2"><path class="cls-1-serv-ad-2" d="M24.72,42.91A17,17,0,0,1,8,28.24,15.36,15.36,0,0,1,7.8,26,17,17,0,0,1,24.57,9h.29a16.94,16.94,0,0,1-.14,33.88Zm.13-30.29h-.26A13.39,13.39,0,0,0,11.39,26a13.12,13.12,0,0,0,.12,1.79A13.35,13.35,0,1,0,24.85,12.62Z"></path><path class="cls-1-serv-ad-2" d="M8.18,29.81,8,28.25A15.59,15.59,0,0,1,7.8,26,17,17,0,0,1,24.57,9h1.57l.22,1.56a15.59,15.59,0,0,1,.16,2.28A17,17,0,0,1,9.75,29.8ZM22.93,12.74A13.4,13.4,0,0,0,11.39,26v.12A13.4,13.4,0,0,0,22.93,12.86Z"></path><path class="cls-1-serv-ad-2" d="M41.29,29.81H39.71A17,17,0,0,1,22.93,12.86a15.69,15.69,0,0,1,.16-2.28L23.3,9h1.58A16.9,16.9,0,0,1,41.51,28.25ZM26.52,12.74v.12A13.41,13.41,0,0,0,38.08,26.09V26A13.41,13.41,0,0,0,26.52,12.74Z"></path><path class="cls-1-serv-ad-2" d="M34.57,15a4,4,0,0,1-2-.53L30.07,13A4,4,0,0,1,28.63,7.6L31.87,2A4,4,0,0,1,37.28.53L39.8,2A4,4,0,0,1,41.25,7.4L38,13a3.92,3.92,0,0,1-2.41,1.84A4,4,0,0,1,34.57,15Zm.76-11.4a.43.43,0,0,0-.35.17L31.73,9.4a.42.42,0,0,0,.14.5h0l2.53,1.46a.41.41,0,0,0,.5-.14L38.14,5.6A.35.35,0,0,0,38,5.1L35.48,3.64A.26.26,0,0,0,35.33,3.6Z"></path><path class="cls-1-serv-ad-2" d="M40.24,20.28a4,4,0,0,1-3.15-1.56l-1.77-2.33a4,4,0,0,1,.77-5.54l5.17-3.92a4,4,0,0,1,5.55.76L48.57,10a3.94,3.94,0,0,1-.77,5.54l-5.17,3.92A3.93,3.93,0,0,1,40.24,20.28Zm3.4-10.55a.37.37,0,0,0-.21.06l-5.17,3.92a.41.41,0,0,0-.08.51h0L40,16.55a.37.37,0,0,0,.51.07l5.18-3.92a.42.42,0,0,0,.07-.52L44,9.86A.39.39,0,0,0,43.64,9.73Z"></path><path class="cls-1-serv-ad-2" d="M40.69,26.76a3.54,3.54,0,0,1-3.49-3l-.33-2.31a3.52,3.52,0,0,1,3-4L45,16.69a3.52,3.52,0,0,1,4,3L49.32,22a3.53,3.53,0,0,1-3,4l-5.14.75A2.92,2.92,0,0,1,40.69,26.76ZM40.43,21l.32,2.24,5.07-.8-.39-2.24Z"></path><path class="cls-1-serv-ad-2" d="M14.8,15a4.06,4.06,0,0,1-1-.14A3.9,3.9,0,0,1,11.37,13L8.12,7.4A4,4,0,0,1,9.57,2L12.1.53A4,4,0,0,1,17.5,2L20.75,7.6A4,4,0,0,1,19.3,13l-2.53,1.46A3.93,3.93,0,0,1,14.8,15ZM14.05,3.6a.29.29,0,0,0-.16,0L11.36,5.1a.37.37,0,0,0-.13.5l3.25,5.62a.41.41,0,0,0,.5.14L17.51,9.9a.42.42,0,0,0,.13-.5L14.39,3.77A.42.42,0,0,0,14.05,3.6Z"></path><path class="cls-1-serv-ad-2" d="M9.13,20.28a3.93,3.93,0,0,1-2.39-.8L1.57,15.56A3.94,3.94,0,0,1,0,13,3.89,3.89,0,0,1,.8,10L2.57,7.69A3.89,3.89,0,0,1,5.18,6.16a3.94,3.94,0,0,1,2.93.77l5.18,3.92a3.95,3.95,0,0,1,.76,5.54h0l-1.76,2.33a4,4,0,0,1-2.62,1.53A4.89,4.89,0,0,1,9.13,20.28Zm-5.47-8.1a.37.37,0,0,0,.08.52l5.17,3.92a.42.42,0,0,0,.52-.07l1.76-2.33a.41.41,0,0,0-.07-.51L5.94,9.79a.34.34,0,0,0-.2-.06"></path><path class="cls-1-serv-ad-2" d="M8.69,26.76a2.92,2.92,0,0,1-.51,0L3,26a3.53,3.53,0,0,1-3-4l.34-2.31a3.52,3.52,0,0,1,4-3l5.14.75a3.53,3.53,0,0,1,3,4l-.34,2.31A3.53,3.53,0,0,1,8.69,26.76ZM3.87,20.24l-.26,2.25,5.08.68L9,21ZM9,20.91H9Z"></path><circle class="cls-1-serv-ad-2" cx="20.35" cy="30.63" r="3.03"></circle><circle class="cls-1-serv-ad-2" cx="28.76" cy="30.63" r="3.03"></circle><path class="cls-1-serv-ad-2" d="M24.73,61A34.16,34.16,0,0,1,9.85,57.43L8,56.56l4.07-6.47,3,1.91-1.9,3a28.57,28.57,0,0,0,23,0l-1.9-3,3-1.91,4.06,6.47-1.81.87A34.09,34.09,0,0,1,24.73,61Z"></path><path class="cls-1-serv-ad-2" d="M3.1,48.57.56,46a26.32,26.32,0,0,0,7.38-18l3.59-.15A29.55,29.55,0,0,1,3.1,48.57Z"></path><path class="cls-1-serv-ad-2" d="M46.09,48.57a29.55,29.55,0,0,1-8.43-20.64l3.59.15a26.38,26.38,0,0,0,7.38,18Z"></path><path class="cls-1-serv-ad-2" d="M14.48,52.93a5.64,5.64,0,1,1,5.64-5.63A5.64,5.64,0,0,1,14.48,52.93Zm0-7.68a2,2,0,1,0,2.05,2A2.05,2.05,0,0,0,14.48,45.25Z"></path><path class="cls-1-serv-ad-2" d="M35,52.93a5.64,5.64,0,1,1,5.64-5.63A5.64,5.64,0,0,1,35,52.93Zm0-7.68a2,2,0,1,0,2.05,2A2.05,2.05,0,0,0,35,45.25Z"></path></g></g></g></svg>