<svg xmlns="http://www.w3.org/2000/svg" viewBox="0 0 65.58 55.13"><defs><style>.cls-1-serv-ad-9{opacity:0.1;}.cls-1-serv-ad-7-2{fill:#836544;}</style></defs><title>serv-adicional_7</title><g id="Capa_2" data-name="Capa 2"><g id="Capa_1-2" data-name="Capa 1"><g class="cls-1-serv-ad-9"><path class="cls-1-serv-ad-7-2" d="M35.21,52.59a1.72,1.72,0,0,1-1.72-1.72V45.6a1.72,1.72,0,0,1,3.43,0v5.27A1.72,1.72,0,0,1,35.21,52.59Z"></path><path class="cls-1-serv-ad-7-2" d="M53.35,47.47H44.57a2.9,2.9,0,0,1-2.75-1.74A2.49,2.49,0,0,1,42.44,43L57.29,28.63a3.14,3.14,0,0,1,3.38-.58,2.65,2.65,0,0,1,1.68,2.42V40C62.35,44.12,58.31,47.47,53.35,47.47ZM46.25,44h7.1c3,0,5.57-1.85,5.57-4V31.82Z"></path><path class="cls-1-serv-ad-7-2" d="M56.65,52.93a1.71,1.71,0,0,1-1.47-.83l-1.93-3.22-2.37,3.33a1.71,1.71,0,1,1-2.79-2l3.63-5.1a2,2,0,0,1,3.35.13l3,5.08a1.71,1.71,0,0,1-.58,2.35A1.68,1.68,0,0,1,56.65,52.93Z"></path><path class="cls-1-serv-ad-7-2" d="M25.84,47.47H17.06c-5,0-9-3.35-9-7.46V30.47a2.65,2.65,0,0,1,1.68-2.42,3.13,3.13,0,0,1,3.38.58L28,43a2.49,2.49,0,0,1,.62,2.77A2.9,2.9,0,0,1,25.84,47.47ZM11.49,31.82V40c0,2.18,2.55,4,5.57,4h7.1Z"></path><path class="cls-1-serv-ad-7-2" d="M13.76,52.93a1.68,1.68,0,0,1-.88-.25,1.71,1.71,0,0,1-.58-2.35l3-5.08a2,2,0,0,1,3.35-.13l3.63,5.1a1.71,1.71,0,0,1-2.79,2l-2.37-3.33L15.24,52.1A1.74,1.74,0,0,1,13.76,52.93Z"></path><path class="cls-1-serv-ad-7-2" d="M35.21,41.83a1.72,1.72,0,0,1-1.72-1.72V20.7a1.72,1.72,0,1,1,3.43,0V40.11A1.72,1.72,0,0,1,35.21,41.83Z"></path><path class="cls-1-serv-ad-7-2" d="M53.51,22h0a1.72,1.72,0,0,1,0-3.43,1.74,1.74,0,0,1,1.74,1.72A1.69,1.69,0,0,1,53.51,22Z"></path><path class="cls-1-serv-ad-7-2" d="M63.86,19.18a1.7,1.7,0,0,1-1.71-1.7v0l-.1-.1v-.45a1.09,1.09,0,0,0-.5-.47L37.52,4A5,5,0,0,0,32.9,4l-24,12.44a1.19,1.19,0,0,0-.48.46v.42l-.12.13h0a1.72,1.72,0,0,1-3.43,0,6.16,6.16,0,0,1,0-.64c0-.13,0-.24.06-.35l.15-.57a4.47,4.47,0,0,1,2.19-2.5L31.32,1A8.42,8.42,0,0,1,39.1,1l24,12.44a4.46,4.46,0,0,1,2.14,2.31l.13.12.08.58a.3.3,0,0,0,0,.1l.06.13,0,.49c0,.11,0,.22,0,.33A1.73,1.73,0,0,1,63.86,19.18ZM5.46,15.42a1.82,1.82,0,0,0-.29.38Z"></path><path class="cls-1-serv-ad-7-2" d="M40.07,52.59H30.34a1.72,1.72,0,0,1,0-3.43h9.73a1.72,1.72,0,0,1,0,3.43Z"></path><path class="cls-1-serv-ad-7-2" d="M11.32,24.1a6.49,6.49,0,0,1-6.43-7.29c0-.13,0-.24.06-.35l.18-.61a1.72,1.72,0,0,1,1.55-1h0a1.72,1.72,0,0,1,1.71,1.71,1.82,1.82,0,0,1-.06.46l0,.11a1.3,1.3,0,0,0,0,.29,3.1,3.1,0,0,0,3.05,3.22,3.07,3.07,0,0,0,3.07-3.07,1.72,1.72,0,0,1,3.43,0,6.32,6.32,0,0,1-1.11,3.62A6.45,6.45,0,0,1,11.32,24.1ZM5.46,15.42a1.82,1.82,0,0,0-.29.38Z"></path><path class="cls-1-serv-ad-7-2" d="M20.88,24.1a6.49,6.49,0,0,1-5.4-2.89,6.4,6.4,0,0,1-1.09-3.61,1.72,1.72,0,0,1,3.43,0,3.06,3.06,0,1,0,6.11,0,1.72,1.72,0,0,1,3.43,0,6.46,6.46,0,0,1-6.48,6.5Z"></path><path class="cls-1-serv-ad-7-2" d="M30.43,24.1a6.51,6.51,0,0,1-6.5-6.5,1.72,1.72,0,0,1,3.43,0,3,3,0,0,0,.51,1.69A3.07,3.07,0,0,0,33.5,17.6a1.71,1.71,0,0,1,3.42,0,6.5,6.5,0,0,1-6.49,6.5Z"></path><path class="cls-1-serv-ad-7-2" d="M40,24.1a6.49,6.49,0,0,1-5.41-2.89A6.58,6.58,0,0,1,33.5,17.6a1.71,1.71,0,0,1,3.42,0,3.15,3.15,0,0,0,.51,1.72,3.08,3.08,0,0,0,5.1,0A3.12,3.12,0,0,0,43,17.6a1.72,1.72,0,0,1,3.43,0A6.5,6.5,0,0,1,40,24.1Z"></path><path class="cls-1-serv-ad-7-2" d="M49.54,24.1a6.46,6.46,0,0,1-5.4-2.89A6.33,6.33,0,0,1,43,17.6a1.72,1.72,0,0,1,3.43,0A3,3,0,0,0,47,19.29a3.07,3.07,0,0,0,5.11,0,3.17,3.17,0,0,0,.5-1.71,1.71,1.71,0,1,1,3.42,0,6.46,6.46,0,0,1-6.47,6.5Z"></path><path class="cls-1-serv-ad-7-2" d="M59.08,24.1a6.49,6.49,0,0,1-5.4-2.89,6.4,6.4,0,0,1-1.09-3.61,1.71,1.71,0,1,1,3.42,0,3.07,3.07,0,1,0,6.14,0,.82.82,0,0,0,0-.14l-.09-.1,0-.77a1.72,1.72,0,0,1,3.1-1l.25.24.08.58c0,.19.06.31.07.42l0,.32,0,.31A6.55,6.55,0,0,1,59.08,24.1Z"></path></g><path class="cls-1-serv-ad-7-2" d="M17.72,54.93a1,1,0,0,1-1-1V50.85a1,1,0,1,1,2,0v3.08A1,1,0,0,1,17.72,54.93Z"></path><path class="cls-1-serv-ad-7-2" d="M28.3,51.94H23.18a1.7,1.7,0,0,1-1.6-1,1.45,1.45,0,0,1,.36-1.62L30.6,41a1.86,1.86,0,0,1,2-.34,1.55,1.55,0,0,1,1,1.41v5.57C33.56,50,31.2,51.94,28.3,51.94Zm-4.14-2H28.3c1.77,0,3.26-1.08,3.26-2.35V42.81Z"></path><path class="cls-1-serv-ad-7-2" d="M30.23,55.13a1,1,0,0,1-.86-.49l-1.12-1.87-1.39,1.94a1,1,0,0,1-1.63-1.16l2.12-3a1.17,1.17,0,0,1,2,.08l1.78,3A1,1,0,0,1,30.74,55,1.06,1.06,0,0,1,30.23,55.13Z"></path><path class="cls-1-serv-ad-7-2" d="M12.25,51.94H7.13c-2.9,0-5.25-1.95-5.25-4.35V42a1.53,1.53,0,0,1,1-1.41,1.84,1.84,0,0,1,2,.34l8.67,8.36a1.47,1.47,0,0,1,.36,1.62A1.7,1.7,0,0,1,12.25,51.94ZM3.88,42.81v4.78c0,1.27,1.49,2.35,3.25,2.35h4.14Z"></path><path class="cls-1-serv-ad-7-2" d="M5.2,55.13A1.06,1.06,0,0,1,4.69,55a1,1,0,0,1-.34-1.38l1.78-3a1.17,1.17,0,0,1,1-.57,1.18,1.18,0,0,1,1,.49l2.12,3a1,1,0,0,1-1.63,1.16L7.19,52.77,6.06,54.64A1,1,0,0,1,5.2,55.13Z"></path><path class="cls-1-serv-ad-7-2" d="M17.72,48.65a1,1,0,0,1-1-1V36.32a1,1,0,0,1,2,0V47.65A1,1,0,0,1,17.72,48.65Z"></path><path class="cls-1-serv-ad-7-2" d="M28.4,37.06h0a1,1,0,0,1,0-2,1,1,0,0,1,1,1A1,1,0,0,1,28.4,37.06Z"></path><path class="cls-1-serv-ad-7-2" d="M34.44,35.43a1,1,0,0,1-1-1h0l-.06,0v-.27a.61.61,0,0,0-.29-.28l-14-7.26a2.93,2.93,0,0,0-2.7,0l-14,7.26a.67.67,0,0,0-.28.27v.25L2,34.42H2a1,1,0,0,1-2,0,2.22,2.22,0,0,1,0-.37l0-.2.09-.34a2.59,2.59,0,0,1,1.28-1.45l14-7.26a4.92,4.92,0,0,1,4.54,0l14,7.26a2.59,2.59,0,0,1,1.25,1.34l.07.08,0,.33v.06l0,.08v.28a1.28,1.28,0,0,1,0,.19A1,1,0,0,1,34.44,35.43ZM.36,33.24a.92.92,0,0,0-.17.22Z"></path><path class="cls-1-serv-ad-7-2" d="M20.56,54.93H14.88a1,1,0,0,1,0-2h5.68a1,1,0,0,1,0,2Z"></path><path class="cls-1-serv-ad-7-2" d="M3.78,38.3A3.79,3.79,0,0,1,0,34.51a2.61,2.61,0,0,1,0-.46l0-.2.11-.36a1,1,0,0,1,.9-.57h0a1,1,0,0,1,1,1,.84.84,0,0,1,0,.27v.06c0,.09,0,.13,0,.17A1.81,1.81,0,0,0,3.78,36.3a1.78,1.78,0,0,0,1.49-.79,1.84,1.84,0,0,0,.3-1,1,1,0,0,1,2,0,3.75,3.75,0,0,1-.64,2.12A3.8,3.8,0,0,1,3.78,38.3ZM.36,33.24a.92.92,0,0,0-.17.22Z"></path><path class="cls-1-serv-ad-7-2" d="M9.36,38.3a3.78,3.78,0,0,1-3.15-1.68,3.7,3.7,0,0,1-.64-2.11,1,1,0,0,1,2,0,1.79,1.79,0,0,0,3.28,1,1.83,1.83,0,0,0,.29-1,1,1,0,0,1,2,0A3.78,3.78,0,0,1,9.36,38.3Z"></path><path class="cls-1-serv-ad-7-2" d="M14.93,38.3a3.78,3.78,0,0,1-3.15-1.68,3.7,3.7,0,0,1-.64-2.11,1,1,0,0,1,2,0,1.79,1.79,0,0,0,3.28,1,1.84,1.84,0,0,0,.3-1,1,1,0,0,1,2,0,3.75,3.75,0,0,1-.64,2.12A3.8,3.8,0,0,1,14.93,38.3Z"></path><path class="cls-1-serv-ad-7-2" d="M20.5,38.3a3.78,3.78,0,0,1-3.15-1.68,3.84,3.84,0,0,1-.63-2.11,1,1,0,0,1,2,0,1.83,1.83,0,0,0,.29,1,1.8,1.8,0,0,0,3,0,1.84,1.84,0,0,0,.3-1,1,1,0,0,1,2,0,3.75,3.75,0,0,1-.64,2.12A3.8,3.8,0,0,1,20.5,38.3Z"></path><path class="cls-1-serv-ad-7-2" d="M26.08,38.3a3.78,3.78,0,0,1-3.15-1.68,3.7,3.7,0,0,1-.64-2.11,1,1,0,0,1,2,0,1.79,1.79,0,0,0,3.28,1,1.83,1.83,0,0,0,.29-1,1,1,0,0,1,2,0,3.78,3.78,0,0,1-3.78,3.79Z"></path><path class="cls-1-serv-ad-7-2" d="M31.65,38.3a3.78,3.78,0,0,1-3.15-1.68,3.7,3.7,0,0,1-.64-2.11,1,1,0,0,1,2,0,1.79,1.79,0,0,0,3.58,0v-.08l-.06,0v-.46a1,1,0,0,1,1.81-.58l.14.14,0,.33,0,.25c0,.06,0,.12,0,.18v.18A3.81,3.81,0,0,1,31.65,38.3Z"></path></g></g></svg>