<svg xmlns="http://www.w3.org/2000/svg" viewBox="0 0 70.79 54.62"><defs><style>.cls-1-serv-ad-5{opacity:0.1;}.cls-1-serv-ad-3-2{fill:#836544;}</style></defs><title>serv-adicional_3</title><g id="Capa_2" data-name="Capa 2"><g id="Capa_1-2" data-name="Capa 1"><g class="cls-1-serv-ad-5"><path class="cls-1-serv-ad-3-2" d="M61.53,54.62H9.26A9.27,9.27,0,0,1,0,45.36V17.82A9.27,9.27,0,0,1,9.26,8.56H61.53a9.27,9.27,0,0,1,9.26,9.26V35.4a2.79,2.79,0,1,1-5.57,0V17.82a3.69,3.69,0,0,0-3.69-3.69H9.26a3.69,3.69,0,0,0-3.68,3.69V45.36a3.69,3.69,0,0,0,3.68,3.69H61.53a3.69,3.69,0,0,0,3.69-3.69,2.79,2.79,0,0,1,5.57,0A9.27,9.27,0,0,1,61.53,54.62Z"></path><path class="cls-1-serv-ad-3-2" d="M54,14.13H16.8V7.81A7.81,7.81,0,0,1,24.61,0H46.18A7.81,7.81,0,0,1,54,7.81ZM22.37,8.56H48.42V7.81a2.24,2.24,0,0,0-2.24-2.24H24.61a2.25,2.25,0,0,0-2.24,2.24Z"></path><path class="cls-1-serv-ad-3-2" d="M60,27H42.64a2.79,2.79,0,1,1,0-5.57H60A2.79,2.79,0,1,1,60,27Z"></path><path class="cls-1-serv-ad-3-2" d="M28.15,27H2.79a2.79,2.79,0,1,1,0-5.57H28.15a2.79,2.79,0,1,1,0,5.57Z"></path><path class="cls-1-serv-ad-3-2" d="M38.07,34.2H32.72a5.47,5.47,0,0,1-5.46-5.47V22.68a5.47,5.47,0,0,1,5.46-5.46h5.35a5.47,5.47,0,0,1,5.46,5.46v6.05A5.47,5.47,0,0,1,38.07,34.2ZM38,22.68l-5.24.11.11,5.94,5.13-.1Zm.11,5.94Z"></path></g><path class="cls-1-serv-ad-3-2" d="M32.43,52.48H9a4.17,4.17,0,0,1-4.16-4.16V36A4.16,4.16,0,0,1,9,31.81H32.43A4.16,4.16,0,0,1,36.59,36v7.89a1.25,1.25,0,0,1-2.5,0V36a1.65,1.65,0,0,0-1.66-1.65H9A1.65,1.65,0,0,0,7.33,36V48.32A1.66,1.66,0,0,0,9,50H32.43a1.66,1.66,0,0,0,1.66-1.66,1.25,1.25,0,1,1,2.5,0A4.17,4.17,0,0,1,32.43,52.48Z"></path><path class="cls-1-serv-ad-3-2" d="M29.05,34.31H12.37V31.48A3.51,3.51,0,0,1,15.87,28h9.68a3.51,3.51,0,0,1,3.5,3.51Zm-14.18-2.5H26.55v-.33a1,1,0,0,0-1-1H15.87a1,1,0,0,0-1,1Z"></path><path class="cls-1-serv-ad-3-2" d="M31.74,40.07H24a1.25,1.25,0,0,1,0-2.5h7.78a1.25,1.25,0,1,1,0,2.5Z"></path><path class="cls-1-serv-ad-3-2" d="M17.46,40.07H6.08a1.25,1.25,0,1,1,0-2.5H17.46a1.25,1.25,0,0,1,0,2.5Z"></path><path class="cls-1-serv-ad-3-2" d="M21.91,43.31h-2.4a2.45,2.45,0,0,1-2.45-2.45V38.15a2.45,2.45,0,0,1,2.45-2.45h2.4a2.45,2.45,0,0,1,2.45,2.45v2.71A2.45,2.45,0,0,1,21.91,43.31Zm-.05-5.16-2.35.05,0,2.66,2.3,0Zm.05,2.66Z"></path></g></g></svg>