<svg xmlns="http://www.w3.org/2000/svg" viewBox="0 0 72.99 50.86"><defs><style>.cls-1-serv-ad-3{fill:#836544;}.cls-2{opacity:0.1;}</style></defs><title>serv-adicional_1</title><g id="Capa_2" data-name="Capa 2"><g id="Capa_1-2" data-name="Capa 1"><path class="cls-1-serv-ad-3" d="M26.91,50.86H13.19a6.28,6.28,0,1,1,0-12.55H26.91a6.28,6.28,0,1,1,0,12.55ZM13.19,40.31a4.28,4.28,0,1,0,0,8.55H26.91a4.28,4.28,0,1,0,0-8.55Z"></path><path class="cls-1-serv-ad-3" d="M2,50.61a2.09,2.09,0,0,1-1-.28,2,2,0,0,1-1-1.77v-.28l1.92-3.14a1,1,0,0,0,0-1.1L0,40.9v-.28a2,2,0,0,1,3.06-1.77l3.81,2.2a4.09,4.09,0,0,1,0,7.08l-3.81,2.2A2.09,2.09,0,0,1,2,50.61Zm.16-9.94L3.63,43a3,3,0,0,1,0,3.18L2.26,48.42l3.61-2a2.1,2.1,0,0,0,0-3.62Z"></path><path class="cls-1-serv-ad-3" d="M38.06,50.61a2.09,2.09,0,0,1-1-.28l-3.81-2.2a4.09,4.09,0,0,1,0-7.08L37,38.85a2,2,0,0,1,3.06,1.77v.28L38.18,44a1,1,0,0,0,0,1.1l1.92,3.14v.28a2,2,0,0,1-1,1.77A2.09,2.09,0,0,1,38.06,50.61ZM34.23,46.4l3.67,2.11-1.43-2.33a3,3,0,0,1,0-3.18l1.37-2.24-3.61,2a2.1,2.1,0,0,0,0,3.62Z"></path><path class="cls-1-serv-ad-3" d="M22.84,50.86a10.1,10.1,0,0,1-7.28-3.6,11.69,11.69,0,0,1-2.08-8.08l2,.27A9.84,9.84,0,0,0,17.14,46,8.2,8.2,0,0,0,23,48.87Z"></path><path class="cls-1-serv-ad-3" d="M29,50.23c-8.78-3-7.52-10.75-7.5-10.83l2,.35-1-.17,1,.17c-.05.25-.95,6.15,6.18,8.59Z"></path><path class="cls-1-serv-ad-3" d="M31.26,41.17l-1.91-.59L33,28.87a1.22,1.22,0,0,0-.84-1.5L23.88,25a1.28,1.28,0,0,0-.94.1,1.25,1.25,0,0,0-.59.74l-4,13.24-1.92-.57,4-13.24A3.17,3.17,0,0,1,22,23.32a3.22,3.22,0,0,1,2.45-.27l8.27,2.39a3.24,3.24,0,0,1,2.21,4Z"></path><circle class="cls-1-serv-ad-3" cx="24.71" cy="29.56" r="1.5"></circle><circle class="cls-1-serv-ad-3" cx="27.7" cy="34.76" r="1.5"></circle><path class="cls-1-serv-ad-3" d="M11.36,36.48a6.65,6.65,0,0,1-5.9-4.17,7,7,0,0,1-.32-4.9,5.49,5.49,0,0,1,3.05-3.49c3-1.29,6.55.39,8,3.73a7.05,7.05,0,0,1,.31,4.9,5.45,5.45,0,0,1-3,3.49A5.17,5.17,0,0,1,11.36,36.48Zm-1.07-11A3.38,3.38,0,0,0,9,25.75,3.55,3.55,0,0,0,7.05,28a5,5,0,0,0,.24,3.51c1,2.33,3.42,3.54,5.37,2.69A3.52,3.52,0,0,0,14.59,32a5,5,0,0,0-.24-3.51A4.64,4.64,0,0,0,10.29,25.48Z"></path><rect class="cls-1-serv-ad-3" x="13.5" y="34.66" width="2" height="4.43" transform="translate(-17.25 13.18) rotate(-31.8)"></rect><path class="cls-1-serv-ad-3" d="M10.12,33a1,1,0,0,1-.9-.57L7.77,29.41a1,1,0,0,1,1.81-.86L11,31.61a1,1,0,0,1-.47,1.33A.94.94,0,0,1,10.12,33Z"></path><path class="cls-1-serv-ad-3" d="M12.81,32a1,1,0,0,1-.91-.57l-1.45-3.06A1,1,0,0,1,10.93,27a1,1,0,0,1,1.33.48l1.45,3.05a1,1,0,0,1-.48,1.33A.9.9,0,0,1,12.81,32Z"></path><g class="cls-2"><path class="cls-1-serv-ad-3" d="M49,50.86H24A11.42,11.42,0,0,1,24,28H49a11.42,11.42,0,0,1,0,22.84ZM24,31.66a7.78,7.78,0,0,0,0,15.56H49a7.78,7.78,0,1,0,0-15.56Z"></path><path class="cls-1-serv-ad-3" d="M3.71,50.39a3.72,3.72,0,0,1-1.85-.5A3.66,3.66,0,0,1,0,46.68v-.52l3.5-5.72a1.92,1.92,0,0,0,0-2L0,32.72v-.51A3.72,3.72,0,0,1,5.57,29l6.93,4a7.43,7.43,0,0,1,0,12.88l-6.93,4A3.76,3.76,0,0,1,3.71,50.39ZM4,32.3,6.6,36.55a5.52,5.52,0,0,1,0,5.78L4.12,46.41l6.56-3.68a3.8,3.8,0,0,0,0-6.58Z"></path><path class="cls-1-serv-ad-3" d="M69.28,50.39a3.75,3.75,0,0,1-1.85-.5l-6.94-4a7.43,7.43,0,0,1,0-12.88l6.94-4A3.71,3.71,0,0,1,73,32.21v.51L69.5,38.45a1.88,1.88,0,0,0,0,2L73,46.16v.52a3.67,3.67,0,0,1-1.85,3.21A3.76,3.76,0,0,1,69.28,50.39Zm-7-7.66L69,46.59l-2.6-4.26a5.52,5.52,0,0,1,0-5.78l2.49-4.08-6.57,3.68a3.8,3.8,0,0,0,0,6.58Z"></path><path class="cls-1-serv-ad-3" d="M41.57,50.85c-5.83-.57-10.28-2.78-13.25-6.55-4.89-6.21-3.83-14.37-3.78-14.71l3.61.5c0,.07-.89,7,3.05,12,2.33,3,5.94,4.69,10.73,5.16Z"></path><path class="cls-1-serv-ad-3" d="M52.76,49.71C36.77,44.23,39.07,30.14,39.09,30l3.59.63-1.79-.31,1.79.31c-.08.45-1.73,11.19,11.26,15.64Z"></path><path class="cls-1-serv-ad-3" d="M56.91,33.22l-3.48-1.08,6.62-21.31a2.24,2.24,0,0,0-1.54-2.74l-15-4.36a2.19,2.19,0,0,0-1.7.19,2.24,2.24,0,0,0-1.07,1.34l-7.2,24.1-3.48-1L37.2,4.23a5.87,5.87,0,0,1,7.27-4L59.53,4.59a5.89,5.89,0,0,1,4,7.28Z"></path><circle class="cls-1-serv-ad-3" cx="44.98" cy="12.09" r="2.72"></circle><circle class="cls-1-serv-ad-3" cx="50.43" cy="21.54" r="2.72"></circle><path class="cls-1-serv-ad-3" d="M20.68,24.68A12.11,12.11,0,0,1,9.93,17.09a12.83,12.83,0,0,1-.57-8.92A10,10,0,0,1,14.9,1.81c5.39-2.34,11.92.71,14.57,6.8A12.83,12.83,0,0,1,30,17.53a10,10,0,0,1-5.54,6.36A9.65,9.65,0,0,1,20.68,24.68Zm-1.94-20a6.05,6.05,0,0,0-2.39.49,6.42,6.42,0,0,0-3.52,4.11,9.19,9.19,0,0,0,.44,6.38c1.85,4.25,6.23,6.45,9.78,4.91a6.43,6.43,0,0,0,3.52-4.1,9.22,9.22,0,0,0-.44-6.39C24.68,6.73,21.68,4.66,18.74,4.66Z"></path><rect class="cls-1-serv-ad-3" x="24.58" y="21.37" width="3.64" height="8.07" transform="translate(-9.43 17.72) rotate(-31.8)"></rect><path class="cls-1-serv-ad-3" d="M18.42,18.41a1.81,1.81,0,0,1-1.64-1l-2.64-5.56a1.82,1.82,0,0,1,3.29-1.56l2.64,5.56a1.83,1.83,0,0,1-.87,2.43A1.77,1.77,0,0,1,18.42,18.41Z"></path><path class="cls-1-serv-ad-3" d="M23.31,16.46a1.81,1.81,0,0,1-1.64-1.05L19,9.85a1.82,1.82,0,0,1,3.29-1.56L25,13.86a1.83,1.83,0,0,1-1.65,2.6Z"></path></g></g></g></svg>