<svg xmlns="http://www.w3.org/2000/svg" viewBox="0 0 50.12 53.03"><defs><style>.cls-1-serv-ninera{fill:#836544;}.cls-1-serv-ninera-2{opacity:0.1;}</style></defs><title>serv-adicional_6</title><g id="Capa_2" data-name="Capa 2"><g id="Capa_1-2" data-name="Capa 1"><path class="cls-1-serv-ninera" d="M6.93,28.35a3.78,3.78,0,1,0-3.78-3.78A3.77,3.77,0,0,0,6.93,28.35Zm0-5a1.26,1.26,0,1,1-1.26,1.25A1.25,1.25,0,0,1,6.93,23.32Z" transform="translate(0)"></path><path class="cls-1-serv-ninera" d="M13.19,40.65a11.72,11.72,0,0,0-1.93-3.91l.76-2.5a3.64,3.64,0,0,0-.52-3.18,3.57,3.57,0,0,0-2.76-1.51H5.2a3.57,3.57,0,0,0-2.76,1.51,3.64,3.64,0,0,0-.52,3.18l.77,2.5C-.09,40.26,0,45.7,0,45.94a1.26,1.26,0,0,0,1.26,1.23H3.15v4.6a1.26,1.26,0,1,0,2.52,0V45.91a1.26,1.26,0,0,0-1.26-1.25H2.57c.15-1.92.75-5,2.44-6.76a1.26,1.26,0,0,0,.29-1.23l-1-3.16a1.19,1.19,0,0,1,.16-1,1.08,1.08,0,0,1,.8-.44H8.66a1,1,0,0,1,.79.44,1.19,1.19,0,0,1,.16,1l-1,3.16a1.24,1.24,0,0,0,.28,1.23,8.61,8.61,0,0,1,1.85,3.46,16.9,16.9,0,0,1,.59,3.3H9.54a1.25,1.25,0,0,0-1.26,1.25v5.86a1.26,1.26,0,1,0,2.51,0v-4.6h1.89a1.25,1.25,0,0,0,1.26-1.23A19.14,19.14,0,0,0,13.19,40.65Z" transform="translate(0)"></path><path class="cls-1-serv-ninera" d="M23.87,45.15a1.09,1.09,0,0,0-1.08,1.08V52A1.08,1.08,0,1,0,25,52V47.09a2.71,2.71,0,0,0,1.62-2.48V41.43a3.24,3.24,0,0,0-2.4-3.12,3.23,3.23,0,1,0-5.69-2.11,3.26,3.26,0,0,0,.78,2.11,3.24,3.24,0,0,0-2.4,3.12v3.18a2.71,2.71,0,0,0,1.62,2.48V52a1.08,1.08,0,0,0,2.16,0V46.23a1.09,1.09,0,0,0-1.08-1.08.54.54,0,0,1-.54-.54V41.43a1.08,1.08,0,0,1,1.08-1.08h3.23a1.08,1.08,0,0,1,1.08,1.08v3.18A.54.54,0,0,1,23.87,45.15Zm-2.15-7.87a1.08,1.08,0,1,1,1.07-1.08A1.08,1.08,0,0,1,21.72,37.28Z" transform="translate(0)"></path><path class="cls-1-serv-ninera" d="M28.77,28.74c-2.85,0-5.14-3.53-5.14-6.45a5.15,5.15,0,1,1,10.29,0C33.92,25.21,31.62,28.74,28.77,28.74Zm0-9.6a3.15,3.15,0,0,0-3.14,3.15c0,1.9,1.55,4.45,3.14,4.45s3.15-2.55,3.15-4.45A3.15,3.15,0,0,0,28.77,19.14Z" transform="translate(0)"></path><path class="cls-1-serv-ninera" d="M26.92,38.28a1,1,0,0,1-1-1c0-2.11,1.44-3,2.49-3.6s1.21-.8,1.21-1.27a9.39,9.39,0,0,0-1.3-4.14A1,1,0,1,1,30,27.21a11.18,11.18,0,0,1,1.61,5.2c0,1.67-1.26,2.43-2.18,3s-1.52,1-1.52,1.89A1,1,0,0,1,26.92,38.28Z" transform="translate(0)"></path><g class="cls-1-serv-ninera-2"><path class="cls-1-serv-ninera" d="M10.23,16.57A5.59,5.59,0,1,0,4.65,11,5.59,5.59,0,0,0,10.23,16.57Zm0-7.44A1.86,1.86,0,1,1,8.37,11,1.86,1.86,0,0,1,10.23,9.13Z" transform="translate(0)"></path><path class="cls-1-serv-ninera" d="M19.49,34.73A17,17,0,0,0,16.63,29l1.13-3.7a5.35,5.35,0,0,0-.77-4.7,5.23,5.23,0,0,0-4.08-2.23H7.69a5.23,5.23,0,0,0-4.08,2.23,5.35,5.35,0,0,0-.77,4.7L4,29c-4.1,5.2-4,13.23-4,13.59a1.86,1.86,0,0,0,1.86,1.82H4.65v6.79a1.86,1.86,0,0,0,3.72,0V42.52a1.86,1.86,0,0,0-1.86-1.86H3.79c.23-2.83,1.11-7.34,3.61-10a1.87,1.87,0,0,0,.43-1.82L6.4,24.18a1.69,1.69,0,0,1,.24-1.46,1.55,1.55,0,0,1,1.17-.66h5a1.53,1.53,0,0,1,1.17.66,1.69,1.69,0,0,1,.24,1.46l-1.43,4.68a1.87,1.87,0,0,0,.43,1.82,12.45,12.45,0,0,1,2.72,5.11,24.21,24.21,0,0,1,.88,4.87H14.09a1.86,1.86,0,0,0-1.86,1.86v8.65a1.86,1.86,0,0,0,3.72,0V44.38h2.79a1.86,1.86,0,0,0,1.86-1.82A28.51,28.51,0,0,0,19.49,34.73Z" transform="translate(0)"></path><path class="cls-1-serv-ninera" d="M35.27,41.39A1.6,1.6,0,0,0,33.68,43v8.44a1.6,1.6,0,1,0,3.19,0V44.25a4,4,0,0,0,2.39-3.65V35.9a4.79,4.79,0,0,0-3.55-4.62,4.78,4.78,0,1,0-7.25,0,4.78,4.78,0,0,0-3.54,4.62v4.7a4,4,0,0,0,2.39,3.65v7.18a1.59,1.59,0,1,0,3.18,0V43a1.6,1.6,0,0,0-1.59-1.6.79.79,0,0,1-.8-.79V35.9a1.6,1.6,0,0,1,1.6-1.6h4.78a1.6,1.6,0,0,1,1.59,1.6v4.7A.79.79,0,0,1,35.27,41.39ZM32.09,29.76a1.6,1.6,0,1,1,1.59-1.59A1.6,1.6,0,0,1,32.09,29.76Z" transform="translate(0)"></path><path class="cls-1-serv-ninera" d="M42.52,17.14c-4.22,0-7.61-5.22-7.61-9.54a7.61,7.61,0,0,1,15.21,0C50.12,11.92,46.73,17.14,42.52,17.14ZM42.52,3A4.65,4.65,0,0,0,37.87,7.6c0,2.82,2.3,6.58,4.65,6.58s4.65-3.76,4.65-6.58A4.65,4.65,0,0,0,42.52,3Z" transform="translate(0)"></path><path class="cls-1-serv-ninera" d="M39.78,31.24a1.47,1.47,0,0,1-1.47-1.48c0-3.11,2.12-4.39,3.67-5.33,1.39-.83,1.79-1.17,1.79-1.86a13.79,13.79,0,0,0-1.93-6.13,1.48,1.48,0,0,1,2.51-1.56,16.68,16.68,0,0,1,2.38,7.69c0,2.46-1.86,3.58-3.22,4.4s-2.25,1.41-2.25,2.79A1.48,1.48,0,0,1,39.78,31.24Z" transform="translate(0)"></path></g></g></g></svg>