<svg xmlns="http://www.w3.org/2000/svg" viewBox="0 0 53.24 53.24"><defs><style>.cls-1-serv-ad-6{opacity:0.1;}.cls-1-serv-ad-4-2{fill:#836544;}</style></defs><title>serv-adicional_4</title><g id="Capa_2" data-name="Capa 2"><g id="Capa_1-2" data-name="Capa 1"><g class="cls-1-serv-ad-6"><path class="cls-1-serv-ad-4-2" d="M51.16,40.77H48a8.34,8.34,0,0,0,1.12-4.18,2.08,2.08,0,1,0-4.15,0,4.16,4.16,0,0,1-4.16,4.16h-20a4.16,4.16,0,0,1-4.16-4.16V23.7h4.05V34.11a2.08,2.08,0,0,0,4.16,0V23.7H36.71V34.11a2.08,2.08,0,0,0,4.16,0V23.7h4.06v2.51a2.08,2.08,0,1,0,4.15,0V18.93a8.32,8.32,0,0,0-8.31-8.32h-3V9.78a7,7,0,1,0-13.94,0v.83h-3a8.33,8.33,0,0,0-8.32,8.32V36.59a8.25,8.25,0,0,0,1.13,4.18H12.48a4.17,4.17,0,0,1-4.16-4.16V6.24A6.25,6.25,0,0,0,2.08,0a2.08,2.08,0,0,0,0,4.16A2.08,2.08,0,0,1,4.16,6.24V36.61a8.33,8.33,0,0,0,6.66,8.15,6.24,6.24,0,1,0,11.7.17h13.4a6.25,6.25,0,1,0,11.77,0h3.47a2.08,2.08,0,1,0,0-4.16ZM28,9.78a2.81,2.81,0,0,1,5.62,0v.83H28ZM16.64,18.93a4.16,4.16,0,0,1,4.16-4.16h20a4.16,4.16,0,0,1,4.16,4.16v.61H16.64Zm0,30.15A2.08,2.08,0,1,1,18.72,47,2.08,2.08,0,0,1,16.64,49.08Zm25.17,0A2.08,2.08,0,1,1,43.89,47,2.08,2.08,0,0,1,41.81,49.08Z"></path></g><path class="cls-1-serv-ad-4-2" d="M30.13,45.9H28.24a4.83,4.83,0,0,0,.67-2.46,1.23,1.23,0,1,0-2.45,0A2.45,2.45,0,0,1,24,45.89H12.25A2.45,2.45,0,0,1,9.8,43.44v-7.6h2.39V42a1.23,1.23,0,0,0,2.45,0V35.84h7V42a1.23,1.23,0,0,0,2.45,0V35.84h2.39v1.48a1.23,1.23,0,1,0,2.45,0V33a4.91,4.91,0,0,0-4.9-4.9H22.23v-.49a4.1,4.1,0,0,0-8.2,0v.49H12.25A4.91,4.91,0,0,0,7.35,33V43.44A4.92,4.92,0,0,0,8,45.9H7.35A2.45,2.45,0,0,1,4.9,43.45V25.56a3.68,3.68,0,0,0-3.68-3.67,1.23,1.23,0,0,0,0,2.45,1.23,1.23,0,0,1,1.23,1.22V43.45a4.92,4.92,0,0,0,3.92,4.8,3.6,3.6,0,0,0-.25,1.32,3.68,3.68,0,0,0,7.35,0,3.51,3.51,0,0,0-.21-1.22h7.9A3.51,3.51,0,0,0,21,49.57a3.68,3.68,0,0,0,7.35,0,3.52,3.52,0,0,0-.22-1.22h2.05a1.23,1.23,0,1,0,0-2.45ZM16.47,27.64a1.66,1.66,0,0,1,3.31,0v.49H16.47ZM9.8,33a2.45,2.45,0,0,1,2.45-2.45H24A2.45,2.45,0,0,1,26.46,33v.36H9.8Zm0,17.76A1.22,1.22,0,1,1,11,49.57,1.22,1.22,0,0,1,9.8,50.79Zm14.82,0a1.22,1.22,0,1,1,1.23-1.22A1.22,1.22,0,0,1,24.62,50.79Z"></path></g></g></svg>