<svg xmlns="http://www.w3.org/2000/svg" viewBox="0 0 48.84 48.84"><defs><style>.cls-1-serv-ad-10{opacity:0.1;}.cls-1-serv-ad-10-2{fill:#836544;}</style></defs><title>serv-adicional_10</title><g id="Capa_2" data-name="Capa 2"><g id="Capa_1-2" data-name="Capa 1"><g class="cls-1-serv-ad-10"><path class="cls-1-serv-ad-10-2" d="M43.12,20.13a5.68,5.68,0,0,0-1.44.18l1-11.07v0a7.64,7.64,0,0,0-6.51-8.17A89,89,0,0,0,24.32,0,85.52,85.52,0,0,0,12.65,1,7.64,7.64,0,0,0,6.16,9.21v0l1,11.08A5.73,5.73,0,0,0,0,25.85c0,8,5.05,13.23,7.35,15.2L5.8,46.4a1.91,1.91,0,0,0,1.3,2.36,2,2,0,0,0,.53.08,1.9,1.9,0,0,0,1.83-1.38L11,42.26h26.9l1.51,5.2a1.9,1.9,0,0,0,1.83,1.38,2,2,0,0,0,.53-.08A1.91,1.91,0,0,0,43,46.4l-1.91-6.58a1.91,1.91,0,0,0-1.88-1.38H10.18a18.82,18.82,0,0,1-3-3.14,15.32,15.32,0,0,1-3.34-9.45,1.91,1.91,0,1,1,3.81,0c0,.08,0,.15,0,.23l.13,1.09a4.2,4.2,0,0,0,5,4,64.16,64.16,0,0,1,11.66-1.31,64.16,64.16,0,0,1,11.66,1.31,4.2,4.2,0,0,0,5-4l.13-1.09a1.79,1.79,0,0,0,0-.23,1.91,1.91,0,1,1,3.81,0,14.89,14.89,0,0,1-1.64,6.77,1.91,1.91,0,1,0,3.4,1.72,18.56,18.56,0,0,0,2.06-8.49A5.73,5.73,0,0,0,43.12,20.13ZM38.88,8.91l-1.62,18v0a.76.76,0,0,0,0,.15.37.37,0,0,1-.14.3.36.36,0,0,1-.31.08A67.54,67.54,0,0,0,24.42,26,67.54,67.54,0,0,0,12,27.42a.36.36,0,0,1-.31-.08.37.37,0,0,1-.14-.3.76.76,0,0,0,0-.15v0L10,8.89a3.84,3.84,0,0,1,3.25-4.08,83.74,83.74,0,0,1,11.11-1,85.57,85.57,0,0,1,11.3,1A3.83,3.83,0,0,1,38.88,8.91Z"></path></g><path class="cls-1-serv-ad-10-2" d="M27.68,30.4a4,4,0,0,0-.92.12l.64-7.11h0a4.9,4.9,0,0,0-4.17-5.24,57,57,0,0,0-7.61-.68,54.73,54.73,0,0,0-7.5.67A4.89,4.89,0,0,0,4,23.4H4l.64,7.11a4.08,4.08,0,0,0-.93-.12A3.68,3.68,0,0,0,0,34.08a13.11,13.11,0,0,0,4.72,9.76l-1,3.43a1.23,1.23,0,0,0,.84,1.52,1.33,1.33,0,0,0,.34.05A1.24,1.24,0,0,0,6.08,48l1-3.34H24.31l1,3.34a1.24,1.24,0,0,0,1.18.89,1.4,1.4,0,0,0,.34-.05,1.22,1.22,0,0,0,.83-1.52l-1.22-4.22a1.23,1.23,0,0,0-1.21-.89H6.54a11.76,11.76,0,0,1-1.94-2,9.83,9.83,0,0,1-2.15-6.07,1.23,1.23,0,1,1,2.45,0,.61.61,0,0,0,0,.14l.08.71a2.7,2.7,0,0,0,3.2,2.56,41.12,41.12,0,0,1,7.49-.84,41.12,41.12,0,0,1,7.49.84,2.7,2.7,0,0,0,3.2-2.56l.08-.71s0-.09,0-.14a1.23,1.23,0,1,1,2.45,0,9.52,9.52,0,0,1-1.06,4.34A1.22,1.22,0,1,0,30,39.53a11.92,11.92,0,0,0,1.33-5.45A3.68,3.68,0,0,0,27.68,30.4ZM25,23.2l-1,11.53v.11a.23.23,0,0,1-.09.19.22.22,0,0,1-.21,0,44.11,44.11,0,0,0-7.94-.88,44.21,44.21,0,0,0-7.95.88.21.21,0,0,1-.2,0,.23.23,0,0,1-.09-.19v-.11l-1-11.54a2.45,2.45,0,0,1,2.08-2.62,53.67,53.67,0,0,1,7.14-.64,54.11,54.11,0,0,1,7.25.65A2.46,2.46,0,0,1,25,23.2Z"></path></g></g></svg>