<svg xmlns="http://www.w3.org/2000/svg" viewBox="0 0 48.84 48.84"><defs><style>.cls-1-serv-ad-4{opacity:0.1;}.cls-1-serv-ad-9-2{fill:#836544;}</style></defs><title>serv-adicional_2</title><g id="Capa_2" data-name="Capa 2"><g id="Capa_1-2" data-name="Capa 1"><g class="cls-1-serv-ad-4"><path class="cls-1-serv-ad-9-2" d="M46.93,33.58a1.92,1.92,0,0,0,1.91-1.91v-24A7.64,7.64,0,0,0,41.21,0H7.63A7.64,7.64,0,0,0,0,7.63V41.21a7.64,7.64,0,0,0,7.63,7.63H41.21a7.64,7.64,0,0,0,7.63-7.63,1.91,1.91,0,1,0-3.82,0A3.82,3.82,0,0,1,41.21,45h-.67V23.75c0-2.94-2.36-4.22-3.92-5.07-.33-.17-.66-.35-.94-.53V11.24a1.91,1.91,0,0,0-.86-3.61h-2a1.91,1.91,0,0,0-1,3.56v6.93c-.3.18-.65.38-1,.56-1.58.85-4,2.13-4,5.07V45H22c0-.06,0-.12,0-.19a21,21,0,0,0-.63-4.66,16.23,16.23,0,0,1-.47-3.25,12.06,12.06,0,0,1,.44-2.85,22.36,22.36,0,0,0,.7-5.36c0-3.92-2.3-7-4.29-9.07v-.95a1.9,1.9,0,0,0-1.14-3.43H13.74a1.91,1.91,0,0,0-1.15,3.43v1c-2,2.09-4.29,5.15-4.29,9.08A19.78,19.78,0,0,0,9,33.9,12.55,12.55,0,0,1,9.44,37,12.6,12.6,0,0,1,9,40.24a18.8,18.8,0,0,0-.65,4.69V45H7.63a3.82,3.82,0,0,1-3.81-3.81V7.63A3.82,3.82,0,0,1,7.63,3.82H41.21A3.82,3.82,0,0,1,45,7.63v24A1.92,1.92,0,0,0,46.93,33.58ZM30.72,30.81H32A1.91,1.91,0,0,0,32,27H30.72V23.75c0-.56.48-.92,1.94-1.71.36-.19.73-.38,1.08-.6.35.21.71.41,1.06.6,1.44.78,1.92,1.14,1.92,1.71V45h-6ZM12.11,44.93a14.81,14.81,0,0,1,.55-3.79,16.11,16.11,0,0,0,.6-4.13,15.93,15.93,0,0,0-.57-4,18.92,18.92,0,0,1-.51-2.78h1.37a1.91,1.91,0,0,0,0-3.82h-1a12.51,12.51,0,0,1,2.62-3.91c1.22,1.31,3,3.59,3,6.2a18.18,18.18,0,0,1-.61,4.5,16.08,16.08,0,0,0-.54,3.71,19.2,19.2,0,0,0,.56,4,17.87,17.87,0,0,1,.54,3.87,1.15,1.15,0,0,0,0,.19H12.11Z"></path></g><path class="cls-1-serv-ad-9-2" d="M30.13,39a1.23,1.23,0,0,0,1.23-1.23V22.38a4.91,4.91,0,0,0-4.9-4.9H4.9A4.91,4.91,0,0,0,0,22.38V43.94a4.91,4.91,0,0,0,4.9,4.9H26.46a4.91,4.91,0,0,0,4.9-4.9,1.23,1.23,0,1,0-2.45,0,2.45,2.45,0,0,1-2.45,2.45H26V32.73c0-1.89-1.52-2.71-2.52-3.25-.21-.12-.42-.23-.6-.35V24.7a1.23,1.23,0,0,0-.56-2.32H21.07a1.22,1.22,0,0,0-.61,2.29v4.44c-.19.12-.42.25-.65.37-1,.54-2.54,1.36-2.54,3.25V46.39H14.11s0-.08,0-.12a14.34,14.34,0,0,0-.4-3,10,10,0,0,1-.31-2.09,8.32,8.32,0,0,1,.28-1.82,13.73,13.73,0,0,0,.46-3.44,8.63,8.63,0,0,0-2.76-5.83v-.61a1.19,1.19,0,0,0,.49-1,1.23,1.23,0,0,0-1.22-1.23H8.82a1.22,1.22,0,0,0-.74,2.2v.67A8.66,8.66,0,0,0,5.33,36a13.08,13.08,0,0,0,.43,3.27,8,8,0,0,1,.3,2,8.22,8.22,0,0,1-.31,2.08,11.69,11.69,0,0,0-.42,3v.06H4.9a2.45,2.45,0,0,1-2.45-2.45V22.38A2.45,2.45,0,0,1,4.9,19.93H26.46a2.45,2.45,0,0,1,2.45,2.45V37.81A1.23,1.23,0,0,0,30.13,39ZM19.72,37.26h.8a1.23,1.23,0,0,0,0-2.45h-.8V32.73c0-.36.31-.59,1.25-1.09.23-.13.47-.25.69-.39l.68.38c.93.5,1.24.73,1.24,1.1V46.39H19.72ZM7.78,46.33a9.61,9.61,0,0,1,.35-2.44,10.41,10.41,0,0,0,.38-2.65,10.24,10.24,0,0,0-.36-2.56,10.87,10.87,0,0,1-.33-1.78H8.7a1.23,1.23,0,0,0,0-2.45H8.08a8.19,8.19,0,0,1,1.69-2.52,6.33,6.33,0,0,1,1.93,4,11.88,11.88,0,0,1-.39,2.89A10.09,10.09,0,0,0,11,41.18a12.54,12.54,0,0,0,.36,2.6,11.41,11.41,0,0,1,.35,2.49v.12H7.77A.13.13,0,0,0,7.78,46.33Z"></path></g></g></svg>