<svg xmlns="http://www.w3.org/2000/svg" viewBox="0 0 65.22 65.22"><defs><style>.cls-1-serv-ad-9{opacity:0.1;}.cls-1-serv-ad-9-2{fill:#836544;}</style></defs><title>serv-adicional_9</title><g id="Capa_2" data-name="Capa 2"><g id="Capa_1-2" data-name="Capa 1"><g class="cls-1-serv-ad-9"><path class="cls-1-serv-ad-9-2" d="M62.67,44.84a2.55,2.55,0,0,0,2.55-2.55V10.19A10.2,10.2,0,0,0,55,0H10.19A10.2,10.2,0,0,0,0,10.19V55A10.2,10.2,0,0,0,10.19,65.22H55A10.2,10.2,0,0,0,65.22,55a2.55,2.55,0,1,0-5.09,0,5.11,5.11,0,0,1-5.1,5.1H10.19A5.1,5.1,0,0,1,5.1,55V10.19A5.09,5.09,0,0,1,10.19,5.1H55a5.1,5.1,0,0,1,5.1,5.09v32.1A2.55,2.55,0,0,0,62.67,44.84Z"></path><path class="cls-1-serv-ad-9-2" d="M32.65,55.45A20.24,20.24,0,1,1,52.88,35.21,20.26,20.26,0,0,1,32.65,55.45Zm0-35.27a15,15,0,1,0,15,15A15.05,15.05,0,0,0,32.65,20.18Z"></path><path class="cls-1-serv-ad-9-2" d="M39.55,42.2a10.76,10.76,0,0,1-1.49-.1A11.28,11.28,0,0,1,30,36.63a6.22,6.22,0,0,0-4.41-3.15c-4.29-.56-9.16,3.63-9.2,3.68l-3.46-3.89c.27-.24,6.67-5.85,13.35-4.94a11.28,11.28,0,0,1,8.08,5.47A6.22,6.22,0,0,0,38.76,37c4.29.59,9.15-3.63,9.2-3.68l3.46,3.89C51.17,37.38,45.67,42.2,39.55,42.2Z"></path><circle class="cls-1-serv-ad-9-2" cx="47.25" cy="11.45" r="2.44"></circle><circle class="cls-1-serv-ad-9-2" cx="54.41" cy="11.45" r="2.44"></circle><path class="cls-1-serv-ad-9-2" d="M11.75,16.74H2.48v-5.2h9.27c3.53,0,6-1.93,6-3.66v-4h5.2v4C22.94,12.85,18,16.74,11.75,16.74Z"></path></g><path class="cls-1-serv-ad-9-2" d="M30.13,55.42a1.23,1.23,0,0,0,1.23-1.22V38.76a4.9,4.9,0,0,0-4.9-4.89H4.9A4.9,4.9,0,0,0,0,38.76V60.32a4.91,4.91,0,0,0,4.9,4.9H26.46a4.91,4.91,0,0,0,4.9-4.9,1.23,1.23,0,0,0-2.45,0,2.45,2.45,0,0,1-2.45,2.45H4.9a2.45,2.45,0,0,1-2.45-2.45V38.76A2.45,2.45,0,0,1,4.9,36.31H26.46a2.45,2.45,0,0,1,2.45,2.45V54.2A1.22,1.22,0,0,0,30.13,55.42Z"></path><path class="cls-1-serv-ad-9-2" d="M15.7,60.52a9.73,9.73,0,1,1,9.72-9.72A9.73,9.73,0,0,1,15.7,60.52Zm0-17a7.23,7.23,0,1,0,7.22,7.23A7.23,7.23,0,0,0,15.7,43.57Z"></path><path class="cls-1-serv-ad-9-2" d="M19,54.15a5.74,5.74,0,0,1-.71,0,5.42,5.42,0,0,1-3.88-2.63A3,3,0,0,0,12.3,50c-2.06-.27-4.4,1.75-4.43,1.77L6.21,49.86c.13-.11,3.21-2.81,6.42-2.38a5.4,5.4,0,0,1,3.88,2.63,3,3,0,0,0,2.12,1.52c2.07.29,4.41-1.75,4.43-1.77l1.66,1.87C24.6,51.84,22,54.15,19,54.15Z"></path><circle class="cls-1-serv-ad-9-2" cx="22.72" cy="39.37" r="1.17"></circle><circle class="cls-1-serv-ad-9-2" cx="26.16" cy="39.37" r="1.17"></circle><path class="cls-1-serv-ad-9-2" d="M5.65,41.91H1.19v-2.5H5.65c1.7,0,2.88-.93,2.88-1.76V35.73H11v1.92C11,40,8.66,41.91,5.65,41.91Z"></path></g></g></svg>