<svg xmlns="http://www.w3.org/2000/svg" viewBox="0 0 51.04 51.04"><defs><style>.cls-1-serv-ad-8{opacity:0.1;}.cls-1-serv-ad-8-2{fill:#836544;}</style></defs><title>serv-adicional_8</title><g id="Capa_2" data-name="Capa 2"><g id="Capa_1-2" data-name="Capa 1"><g class="cls-1-serv-ad-8"><path class="cls-1-serv-ad-8-2" d="M45.06,34.59a6,6,0,1,0-6-6A6,6,0,0,0,45.06,34.59Zm0-8a2,2,0,1,1-2,2A2,2,0,0,1,45.06,26.62Z"></path><path class="cls-1-serv-ad-8-2" d="M49,37.68H40.41l-6.82-8.22a7.56,7.56,0,0,0-6-3.14H6.18a6.14,6.14,0,0,0-1.29.14l3.37-8.35c5.1.72,10.74,2.55,18.47,6a2,2,0,1,0,1.62-3.65C19.46,16.5,13.12,14.56,7.18,14a2,2,0,0,0-2,1.23l-5,12.36a2.12,2.12,0,0,0-.14.75V49a2,2,0,0,0,2,2H18.84a2,2,0,0,0,2-2V41.57h8.28a2,2,0,0,0,0-4H20.83V35.29a2,2,0,1,0-4,0V47.05H4V32.5a2.19,2.19,0,0,1,2.19-2.19H27.54a3.6,3.6,0,0,1,2.91,1.61l.05.06,7.44,9a2,2,0,0,0,1.53.72H49a2,2,0,1,0,0-4Z"></path><path class="cls-1-serv-ad-8-2" d="M12.86,12a6,6,0,1,0-6-6A6,6,0,0,0,12.86,12Zm0-8a2,2,0,1,1-2,2A2,2,0,0,1,12.86,4Z"></path></g><path class="cls-1-serv-ad-8-2" d="M27.68,40.93A3.68,3.68,0,1,0,24,37.26,3.68,3.68,0,0,0,27.68,40.93Zm0-4.9a1.23,1.23,0,1,1-1.22,1.23A1.23,1.23,0,0,1,27.68,36Z"></path><path class="cls-1-serv-ad-8-2" d="M30.13,42.83h-5.3l-4.19-5A4.69,4.69,0,0,0,17,35.85H3.8a3.5,3.5,0,0,0-.8.09l2.07-5.13a42.74,42.74,0,0,1,11.36,3.68A1.22,1.22,0,0,0,18,33.86a1.21,1.21,0,0,0-.62-1.61c-5.47-2.43-9.36-3.62-13-4A1.24,1.24,0,0,0,3.15,29L.09,36.62a1.17,1.17,0,0,0-.09.45V49.81A1.23,1.23,0,0,0,1.22,51H11.58a1.23,1.23,0,0,0,1.22-1.23V45.22h5.08a1.23,1.23,0,1,0,0-2.45H12.8V41.36a1.23,1.23,0,0,0-2.45,0v7.23H2.45V39.65A1.35,1.35,0,0,1,3.8,38.3H16.92a2.23,2.23,0,0,1,1.79,1l0,0,4.57,5.51a1.22,1.22,0,0,0,.94.44h5.88a1.23,1.23,0,1,0,0-2.45Z"></path><path class="cls-1-serv-ad-8-2" d="M7.9,27a3.68,3.68,0,1,0-3.67-3.68A3.68,3.68,0,0,0,7.9,27Zm0-4.9a1.23,1.23,0,1,1-1.22,1.22A1.23,1.23,0,0,1,7.9,22.13Z"></path></g></g></svg>