<?xml version="1.0" encoding="UTF-8"?> <svg xmlns="http://www.w3.org/2000/svg" viewBox="0 0 11.26 20.83"><defs><style>.cls-1{fill:#4d2f14;}</style></defs><title>facebook</title><g id="Capa_2" data-name="Capa 2"><g id="Capa_1-2" data-name="Capa 1"><path class="cls-1" d="M10.84,0H8.14a4.74,4.74,0,0,0-5,5.13V7.49H.42A.42.42,0,0,0,0,7.92v3.42a.42.42,0,0,0,.42.43H3.14v8.64a.42.42,0,0,0,.43.42H7.11a.42.42,0,0,0,.43-.42V11.77h3.17a.43.43,0,0,0,.43-.43V7.92a.44.44,0,0,0-.43-.43H7.54v-2C7.54,4.52,7.76,4,9,4h1.82a.42.42,0,0,0,.42-.42V.43A.42.42,0,0,0,10.84,0Z"></path></g></g></svg> 