<svg xmlns="http://www.w3.org/2000/svg" viewBox="0 0 22.8 15.31"><defs><style>.cls-2-reserv-reserv{fill:#fff;}</style></defs><g id="Capa_2" data-name="Capa 2"><g id="Capa_1-2" data-name="Capa 1"><g class="cls-1"><path class="cls-2-reserv-reserv" d="M21.75,13.19H2.11V11.3c0-2.25.78-3.69,2.46-4.53C6.43,5.82,9.2,5.7,11.4,5.7c6.13,0,8.71,1.23,9.21,4.39a1.05,1.05,0,0,0,2.08-.33,6.35,6.35,0,0,0-4.06-5.14,17.35,17.35,0,0,0-6.17-1V2.11h.9a1.06,1.06,0,0,0,0-2.11H9.45a1.06,1.06,0,0,0,0,2.11h.9V3.6A16.42,16.42,0,0,0,3.61,4.88C1.22,6.1,0,8.26,0,11.3v2.95a1.05,1.05,0,0,0,1.06,1.06H21.75a1.06,1.06,0,0,0,0-2.12Z"></path></g></g></g></svg>