<?xml version="1.0" encoding="UTF-8"?> <svg xmlns="http://www.w3.org/2000/svg" viewBox="0 0 143.61 72.88"><defs><style>.cls-1{fill:#fff;}</style></defs><title>logo-header</title><g id="Capa_2" data-name="Capa 2"><g id="Capa_1-2" data-name="Capa 1"><path class="cls-1" d="M10.8,21.52,5,15H2.61v6.51H0V5.19H7.68c3.36,0,5.6,2,5.6,4.93s-2,4.7-5.14,4.87L14,21.52ZM7.68,12.65c1.8,0,3-1,3-2.53s-1.2-2.56-3-2.56H2.61v5.09Z"></path><path class="cls-1" d="M33.76,21.52l-1.61-3.8H24.21l-1.61,3.8H19.77L27,5.19H29.4l7.19,16.33ZM28.18,8.38l-2.95,7h5.9Z"></path><path class="cls-1" d="M48.83,21.52H46.22V16.11L39.61,5.19h2.9l5,8.19,5-8.19h3l-6.7,10.87Z"></path><path class="cls-1" d="M78,13.38A8.52,8.52,0,1,1,69.5,4.85,8.44,8.44,0,0,1,78,13.38Zm-2.63,0a5.89,5.89,0,1,0-11.78,0,5.89,5.89,0,1,0,11.78,0ZM68.52,3.46,70.3,0h3L70.69,3.46Z"></path><path class="cls-1" d="M100.67,21.52H98.46L88.58,9.8V21.52H86V5.19h2.21L98,17.11V5.19h2.63Z"></path><path class="cls-1" d="M110.28,12.05a12,12,0,0,1,6.91,0,8.52,8.52,0,0,1,4.18,2.91A7.28,7.28,0,0,1,120,24.88a9.78,9.78,0,0,1-6.71,2.41,12.41,12.41,0,0,1-3.81-.59c-1.2-.4-1.78-1.05-1.78-1.93a1.28,1.28,0,0,1,1.43-1.24,3.51,3.51,0,0,1,2.33,1.41,3.84,3.84,0,0,0,2.84,1.41,5,5,0,0,0,3.56-1.67,5.67,5.67,0,0,0,1.67-4.2A6.79,6.79,0,0,0,115,14a8.73,8.73,0,0,0-5.36,0l-.75-.72,3.51-9.68h6.38c.86,0,1.46,0,1.83,0a3.34,3.34,0,0,0,1.1-.27,2,2,0,0,0,.94-.74h.6l-1.1,3.63h-9.61Z"></path><path class="cls-1" d="M128.85,18.13A7.88,7.88,0,0,1,126.3,12,8.15,8.15,0,0,1,129,5.66a9,9,0,0,1,6.18-2.38,8.49,8.49,0,0,1,5.92,2.35,8,8,0,0,1,2.53,6.14A8.09,8.09,0,0,1,141,18.1a9,9,0,0,1-6.2,2.38A8.43,8.43,0,0,1,128.85,18.13Zm10.23-.49c1.12-1.17,1.67-2.93,1.67-5.3A8.89,8.89,0,0,0,139,6.6a5.28,5.28,0,0,0-4.25-2.22,5.21,5.21,0,0,0-3.89,1.76,7.4,7.4,0,0,0-1.67,5.28,8.89,8.89,0,0,0,1.78,5.76,5.28,5.28,0,0,0,4.26,2.22A5.21,5.21,0,0,0,139.08,17.64Z"></path><path class="cls-1" d="M64.47,35.06a20.35,20.35,0,0,1,6-.93q4.65,0,7.07,1.75a8.73,8.73,0,0,0,1.35.73,14.07,14.07,0,0,0,1.39.51c.45.14.71.23.78.26a16,16,0,0,1,2.06,1.53,4.87,4.87,0,0,0,2.12,1.26,2.92,2.92,0,0,0,1.81-.51,10.12,10.12,0,0,0,.88-.91,13.58,13.58,0,0,1,1.27-1.26,1.64,1.64,0,0,1,.9-.52c.31,0,.46.81.46,2.32v.47a5.3,5.3,0,0,0,1.06-.85,4.57,4.57,0,0,1,1.11-.86c.11,0,.16.13.16.37a2.24,2.24,0,0,1-.26.9,8.46,8.46,0,0,1-.52,1l-.25.41c0,2.34.63,3.87,1.91,4.6a6.09,6.09,0,0,1,1,.82c.43.42.62.68.59.78-.07.31-.4.61-1,.9a3.36,3.36,0,0,1-1.45.44,18.8,18.8,0,0,0-2.89-.67,12.64,12.64,0,0,0-1.29-.1l-2-.13A5.86,5.86,0,0,1,85.26,47a10,10,0,0,0-3.05-.67h-.1a.32.32,0,0,1-.15.05,4.61,4.61,0,0,0,1.78,1c.91.33,1.37.72,1.37,1.16s-.47.47-1.4.47a5.34,5.34,0,0,1-2.81-1,29.6,29.6,0,0,1-2.69-1.88,3.81,3.81,0,0,0-1.52-.93,4.18,4.18,0,0,0,.67,1.21,6.14,6.14,0,0,0,1.08,1.32,9.16,9.16,0,0,0,1.4.7,10.61,10.61,0,0,1,1.7.87,1.23,1.23,0,0,1,.67,1q0,.36-1.08.36a4.29,4.29,0,0,1-3.72-1.55,9.84,9.84,0,0,0-1.29-1.24c-.73-.62-1.16-1-1.29-1.13A11.07,11.07,0,0,1,73.72,45a7.21,7.21,0,0,0-1.06-1.62s-.39-.24-1.06-.62-1.35-.74-2-1.09a4.29,4.29,0,0,0-1.4-.52,5.29,5.29,0,0,1,0,.83,3.2,3.2,0,0,1-.72,2.27,3.35,3.35,0,0,1-1.42,1,2.24,2.24,0,0,0-.7.25q0,.27.75,1a2.12,2.12,0,0,0,1.37.7,1.81,1.81,0,0,0,.36,0,1.24,1.24,0,0,1,.31-.06,1.81,1.81,0,0,1,1.14.37,1,1,0,0,1,.46.82c0,.38-.44.57-1.34.57a5.73,5.73,0,0,1-2.56-1.11,11.49,11.49,0,0,1-2.35-1.83,3.47,3.47,0,0,1-1.5.41,13.23,13.23,0,0,1-1.34-.1,14,14,0,0,0-1.45-.11,7.35,7.35,0,0,0,1.71,2.28,3.4,3.4,0,0,0,.8.07,4.09,4.09,0,0,1,1.26.24.71.71,0,0,1,.57.67.72.72,0,0,1-.41.62,1.76,1.76,0,0,1-.93.26,3.26,3.26,0,0,1-1.86-.6,4.2,4.2,0,0,1-1.29-1.26c-.21-.31-.55-.76-1-1.35l-1.26-1.5a4.11,4.11,0,0,1-.54-.67c0-.13.14-.26.44-.38a2.3,2.3,0,0,1,.95-.19,4.6,4.6,0,0,1,1,.19,4.92,4.92,0,0,0,1.08.18c.59,0,.88-.14.88-.42s-.29-.56-.88-1.16a2.68,2.68,0,0,1-.88-1.89,7.31,7.31,0,0,1,.1-1.24q-4.91,2-4.9,6.57A13.85,13.85,0,0,0,54.78,51a17.8,17.8,0,0,0,1.73,3.72q1,1.61,2,3.15a17.68,17.68,0,0,1,1.76,3.41A10.54,10.54,0,0,1,61,65.08a11.46,11.46,0,0,1-.7,4,10.41,10.41,0,0,1-1.42,2.87l-.72,1a13.2,13.2,0,0,0-1.4-4.57,24.24,24.24,0,0,0-2.58-4.11q-1.44-1.86-2.87-3.83A18.7,18.7,0,0,1,49,55.83a15.44,15.44,0,0,1-1-5.43,10.67,10.67,0,0,1,1.06-4.72,11.48,11.48,0,0,1,2.45-3.49,17.16,17.16,0,0,1,3.26-2.33,20.75,20.75,0,0,1,3-1.44c.78-.28,1.49-.5,2.15-.68A9.39,9.39,0,0,1,64.47,35.06Z"></path></g></g></svg> 